<svg xmlns="http://www.w3.org/2000/svg" width="600" height="330" viewBox="0 0 600 330"><style></style><defs><pattern id="dots" width="14" height="14" patternUnits="userSpaceOnUse"><circle cx="7" cy="7" r="2.2" fill="#17171a"/></pattern><pattern id="stripes" width="18" height="18" patternUnits="userSpaceOnUse" patternTransform="rotate(-35)"><rect width="9" height="18" fill="#ff2e3a" opacity="0.16"/></pattern></defs><polygon points="0,0 566,0 600,34 600,330 34,330 0,296" fill="#17171a"/><rect x="400" y="0" width="200" height="330" fill="url(#dots)" opacity=".9"/><polygon points="0,0 566,0 600,34 600,330 34,330 0,296" fill="none" stroke="#f2ede3" stroke-opacity=".12" stroke-width="2"/><rect x="0" y="0" width="8" height="296" fill="#ff2e3a"/><path d="M506.8 96.7Q497.2 96.7 492 91.3Q486.8 85.9 486.8 75.8V41.7Q486.8 31.1 491.7 25.4Q496.7 19.7 506.8 19.7Q516.9 19.7 521.9 25.4Q526.8 31.1 526.8 41.7V75.8Q526.8 85.9 521.6 91.3Q516.4 96.7 506.8 96.7ZM506.8 82.8Q508.5 82.8 509.5 81.2Q510.5 79.6 510.5 77.6V40.3Q510.5 37.6 509.9 35.6Q509.4 33.6 506.8 33.6Q504.2 33.6 503.6 35.6Q503 37.6 503 40.3V77.6Q503 79.6 504 81.2Q505.1 82.8 506.8 82.8ZM550.3 97.1Q541.5 97.1 536 92.8Q530.5 88.4 530.5 79.5V68.2H546.2V74.7Q546.2 76.8 546.5 78.6Q546.7 80.5 547.6 81.7Q548.4 82.9 550.3 82.9Q552.7 82.9 553.5 81.3Q554.3 79.6 554.3 77.1V62.2Q554.3 60.3 554 58.5Q553.8 56.7 553 55.5Q552.1 54.3 550.3 54.3Q546 54.3 546 60.6H532.2V20.3H568.2V34.5H546.5V45.2Q547.6 43.8 549.5 42.7Q551.5 41.7 554 41.7Q559.2 41.7 562.4 43.7Q565.7 45.6 567.4 49.2Q569.2 52.7 569.8 57.3Q570.5 62 570.5 67.3Q570.5 74.1 569.8 79.6Q569.1 85.1 567 89Q564.9 92.9 560.9 95Q556.9 97.1 550.3 97.1Z" fill="none" stroke="#ff2e3a" stroke-width="2" opacity=".9"/><path d="M35.8 64V40.4H32.3V34.8H45.1V40.4H41.6V64ZM54.5 64.3Q51 64.3 49.2 62.1Q47.3 60 47.3 56V42.2Q47.3 38.4 49.1 36.5Q51 34.5 54.5 34.5Q58.1 34.5 59.9 36.5Q61.7 38.4 61.7 42.2V56Q61.7 60 59.9 62.1Q58 64.3 54.5 64.3ZM54.6 58.9Q55.9 58.9 55.9 56.3V42.1Q55.9 39.9 54.6 39.9Q53.1 39.9 53.1 42.1V56.3Q53.1 57.7 53.5 58.3Q53.8 58.9 54.6 58.9ZM64.9 64V34.8H73.8Q76.1 34.8 77.2 35.8Q78.4 36.8 78.8 38.7Q79.2 40.5 79.2 43Q79.2 45.4 78.5 46.8Q77.9 48.2 76.3 48.8Q77.6 49 78.2 50.1Q78.8 51.2 78.8 52.9V64H73V52.6Q73 51.3 72.5 51Q71.9 50.7 70.8 50.7V64ZM70.8 45.6H72.2Q73.4 45.6 73.4 43Q73.4 41.3 73.2 40.7Q72.9 40.2 72.2 40.2H70.8ZM81.9 64V34.8H90.8Q93.1 34.8 94.2 35.8Q95.4 36.8 95.8 38.7Q96.2 40.5 96.2 43Q96.2 45.4 95.6 46.8Q94.9 48.2 93.3 48.8Q94.6 49 95.2 50.1Q95.8 51.2 95.8 52.9V64H90V52.6Q90 51.3 89.5 51Q89 50.7 87.8 50.7V64ZM87.8 45.6H89.2Q90.4 45.6 90.4 43Q90.4 41.3 90.2 40.7Q89.9 40.2 89.2 40.2H87.8ZM98.9 64V34.8H110.6V40.4H104.8V46.1H110.3V51.6H104.8V58.3H111V64ZM122.4 64V34.8H130.5Q133.6 34.8 135.2 36.5Q136.8 38.3 136.8 41.7V55.3Q136.8 59.5 135.4 61.7Q133.9 64 130.3 64ZM128.3 58.8H129.3Q130.9 58.8 130.9 57.3V42.2Q130.9 40.7 130.6 40.3Q130.2 39.9 129 39.9H128.3ZM140 64V34.8H151.7V40.4H146V46.1H151.5V51.6H146V58.3H152.1V64ZM154.8 64V34.8H160.7V59H166.7V64ZM184.7 64.3Q181.5 64.3 179.6 62.3Q177.7 60.3 177.7 56.8V43.3Q177.7 39 179.3 36.8Q181 34.5 184.8 34.5Q186.9 34.5 188.5 35.3Q190.1 36 191.1 37.6Q192 39.1 192 41.4V46.4H186.2V42.1Q186.2 40.8 185.9 40.4Q185.5 39.9 184.8 39.9Q184 39.9 183.7 40.5Q183.5 41.1 183.5 42.1V56.7Q183.5 57.9 183.8 58.4Q184.2 58.9 184.8 58.9Q185.6 58.9 185.9 58.3Q186.2 57.7 186.2 56.7V51.4H192.1V56.9Q192.1 60.8 190.1 62.5Q188.2 64.3 184.7 64.3ZM194 64 196.8 34.8H206.7L209.5 64H204L203.6 59.3H200.1L199.7 64ZM200.5 54.6H203.1L201.9 39.8H201.6ZM212.1 64V34.8H221.1Q223.3 34.8 224.5 35.8Q225.6 36.8 226 38.7Q226.4 40.5 226.4 43Q226.4 45.4 225.8 46.8Q225.2 48.2 223.5 48.8Q224.9 49 225.4 50.1Q226 51.2 226 52.9V64H220.2V52.6Q220.2 51.3 219.7 51Q219.2 50.7 218 50.7V64ZM218.1 45.6H219.5Q220.7 45.6 220.7 43Q220.7 41.3 220.4 40.7Q220.1 40.2 219.4 40.2H218.1ZM228.9 64V34.8H234.5V64ZM237.6 64V34.8H245.5Q248.7 34.8 250.2 36.3Q251.6 37.9 251.6 41.5V42.7Q251.6 44.8 250.9 46.1Q250.2 47.3 248.6 47.7Q250.6 48.2 251.3 50.1Q252 51.9 252 54.6Q252 57.4 251.4 59.5Q250.9 61.6 249.5 62.8Q248.1 64 245.5 64ZM243.3 45.8H244.5Q245.3 45.8 245.6 45.2Q245.8 44.5 245.8 43.6V40.7Q245.8 39.3 244.6 39.3H243.3ZM243.9 58.9Q246.2 58.9 246.2 56.7V53Q246.2 51.8 245.8 51.1Q245.4 50.4 244.4 50.4H243.3V58.8Q243.7 58.9 243.9 58.9ZM254.7 64V34.8H266.4V40.4H260.6V46.1H266.1V51.6H260.6V58.3H266.8V64Z" fill="#f2ede3"/><path d="M37.9 110.2Q36.5 110.2 35.3 109.5Q34.2 108.8 33.5 107.5Q32.9 106.2 32.9 104.4Q32.9 102.6 33.5 101.3Q34.2 100 35.3 99.3Q36.5 98.6 37.9 98.6Q38.8 98.6 39.6 98.8Q40.4 99.1 41 99.6Q41.6 100.1 42 100.8Q42.4 101.5 42.6 102.4H40.8Q40.7 101.8 40.5 101.4Q40.2 101 39.8 100.7Q39.4 100.4 39 100.3Q38.5 100.1 37.9 100.1Q37 100.1 36.2 100.6Q35.4 101.1 35 102.1Q34.6 103 34.6 104.4Q34.6 105.7 35 106.7Q35.5 107.6 36.2 108.1Q37 108.6 37.9 108.6Q38.5 108.6 39 108.4Q39.4 108.3 39.8 108Q40.2 107.7 40.5 107.3Q40.7 106.9 40.8 106.3H42.6Q42.5 107.2 42.1 107.9Q41.7 108.6 41.1 109.1Q40.4 109.6 39.7 109.9Q38.9 110.2 37.9 110.2ZM46.9 110.2Q46.1 110.2 45.4 109.9Q44.8 109.6 44.4 109Q44 108.4 44 107.6Q44 106.9 44.3 106.4Q44.6 106 45 105.7Q45.5 105.4 46.1 105.3Q46.6 105.2 47.3 105.1Q48 105 48.5 104.9Q48.9 104.9 49.2 104.7Q49.4 104.6 49.4 104.3V104.3Q49.4 103.8 49.2 103.5Q49 103.1 48.7 103Q48.3 102.8 47.8 102.8Q47.2 102.8 46.8 103Q46.4 103.1 46.2 103.4Q45.9 103.7 45.8 103.9L44.2 103.5Q44.5 102.8 45.1 102.3Q45.6 101.9 46.3 101.6Q47 101.4 47.7 101.4Q48.2 101.4 48.8 101.6Q49.4 101.7 49.9 102Q50.4 102.3 50.7 102.9Q51 103.5 51 104.4V110H49.4V108.8H49.4Q49.2 109.2 48.9 109.5Q48.5 109.8 48 110Q47.5 110.2 46.9 110.2ZM47.2 108.9Q47.9 108.9 48.4 108.6Q48.9 108.3 49.1 107.9Q49.4 107.4 49.4 107V105.9Q49.3 106 49 106Q48.8 106.1 48.5 106.2Q48.1 106.2 47.8 106.3Q47.5 106.3 47.3 106.3Q46.9 106.4 46.5 106.5Q46.1 106.7 45.9 106.9Q45.6 107.2 45.6 107.6Q45.6 108 45.8 108.3Q46 108.6 46.4 108.7Q46.8 108.9 47.2 108.9ZM53.3 110V101.5H54.9L54.9 103.5H54.8Q55 102.8 55.3 102.3Q55.7 101.9 56.2 101.6Q56.7 101.4 57.3 101.4Q58.2 101.4 58.8 102Q59.3 102.5 59.5 103.6H59.3Q59.5 102.9 59.9 102.4Q60.3 101.9 60.9 101.6Q61.5 101.4 62.1 101.4Q62.9 101.4 63.5 101.7Q64.1 102 64.5 102.7Q64.8 103.3 64.8 104.3V110H63.2V104.5Q63.2 103.6 62.7 103.2Q62.2 102.9 61.6 102.9Q61 102.9 60.7 103.1Q60.3 103.3 60.1 103.7Q59.9 104.1 59.9 104.6V110H58.2V104.4Q58.2 103.7 57.8 103.3Q57.4 102.9 56.7 102.9Q56.2 102.9 55.8 103.1Q55.4 103.3 55.2 103.7Q55 104.1 55 104.7V110ZM67.1 113.2V101.5H68.7V102.9H68.8Q69 102.7 69.2 102.3Q69.5 102 70 101.7Q70.5 101.4 71.3 101.4Q72.3 101.4 73.1 101.9Q73.9 102.5 74.3 103.4Q74.8 104.4 74.8 105.8Q74.8 107.2 74.3 108.1Q73.9 109.1 73.1 109.6Q72.3 110.2 71.3 110.2Q70.5 110.2 70 109.9Q69.5 109.6 69.2 109.3Q69 108.9 68.8 108.7H68.7V113.2ZM70.9 108.7Q71.6 108.7 72.1 108.4Q72.6 108 72.8 107.3Q73.1 106.6 73.1 105.8Q73.1 104.9 72.8 104.3Q72.6 103.6 72.1 103.2Q71.6 102.9 70.9 102.9Q70.2 102.9 69.7 103.2Q69.2 103.6 68.9 104.2Q68.7 104.9 68.7 105.8Q68.7 106.7 68.9 107.3Q69.2 108 69.7 108.4Q70.2 108.7 70.9 108.7ZM79 110.2Q78.2 110.2 77.6 109.9Q76.9 109.6 76.5 109Q76.1 108.4 76.1 107.6Q76.1 106.9 76.4 106.4Q76.7 106 77.2 105.7Q77.6 105.4 78.2 105.3Q78.8 105.2 79.4 105.1Q80.2 105 80.6 104.9Q81.1 104.9 81.3 104.7Q81.5 104.6 81.5 104.3V104.3Q81.5 103.8 81.4 103.5Q81.2 103.1 80.8 103Q80.4 102.8 79.9 102.8Q79.4 102.8 79 103Q78.6 103.1 78.3 103.4Q78.1 103.7 78 103.9L76.4 103.5Q76.7 102.8 77.2 102.3Q77.8 101.9 78.4 101.6Q79.1 101.4 79.9 101.4Q80.4 101.4 81 101.6Q81.5 101.7 82.1 102Q82.6 102.3 82.9 102.9Q83.2 103.5 83.2 104.4V110H81.6V108.8H81.5Q81.3 109.2 81 109.5Q80.7 109.8 80.2 110Q79.7 110.2 79 110.2ZM79.4 108.9Q80.1 108.9 80.5 108.6Q81 108.3 81.3 107.9Q81.5 107.4 81.5 107V105.9Q81.5 106 81.2 106Q80.9 106.1 80.6 106.2Q80.3 106.2 80 106.3Q79.7 106.3 79.5 106.3Q79 106.4 78.6 106.5Q78.2 106.7 78 106.9Q77.8 107.2 77.8 107.6Q77.8 108 78 108.3Q78.2 108.6 78.6 108.7Q78.9 108.9 79.4 108.9ZM87.1 105V110H85.4V101.5H87L87 103.6H86.9Q87.2 102.5 87.9 102Q88.6 101.4 89.6 101.4Q90.5 101.4 91.2 101.8Q91.8 102.2 92.2 102.9Q92.5 103.6 92.5 104.6V110H90.9V104.8Q90.9 103.9 90.4 103.4Q89.9 102.9 89.1 102.9Q88.5 102.9 88.1 103.1Q87.6 103.4 87.4 103.8Q87.1 104.3 87.1 105ZM90 100.1Q89.7 100.1 89.4 100Q89.1 99.9 88.9 99.8Q88.7 99.7 88.5 99.6Q88.3 99.5 88.1 99.5Q87.9 99.5 87.8 99.7Q87.7 99.8 87.7 100.1H86.6Q86.7 99.3 87 98.9Q87.3 98.4 88 98.4Q88.3 98.4 88.6 98.5Q88.8 98.6 89 98.7Q89.3 98.9 89.5 99Q89.7 99.1 89.8 99.1Q90.1 99.1 90.2 98.9Q90.3 98.8 90.3 98.4H91.3Q91.3 99.2 90.9 99.7Q90.6 100.1 90 100.1ZM97.1 110.2Q96.3 110.2 95.7 109.9Q95 109.6 94.7 109Q94.3 108.4 94.3 107.6Q94.3 106.9 94.5 106.4Q94.8 106 95.3 105.7Q95.8 105.4 96.3 105.3Q96.9 105.2 97.5 105.1Q98.3 105 98.7 104.9Q99.2 104.9 99.4 104.7Q99.7 104.6 99.7 104.3V104.3Q99.7 103.8 99.5 103.5Q99.3 103.1 98.9 103Q98.6 102.8 98 102.8Q97.5 102.8 97.1 103Q96.7 103.1 96.4 103.4Q96.2 103.7 96.1 103.9L94.5 103.5Q94.8 102.8 95.3 102.3Q95.9 101.9 96.6 101.6Q97.3 101.4 98 101.4Q98.5 101.4 99.1 101.6Q99.7 101.7 100.2 102Q100.7 102.3 101 102.9Q101.3 103.5 101.3 104.4V110H99.7V108.8H99.6Q99.5 109.2 99.1 109.5Q98.8 109.8 98.3 110Q97.8 110.2 97.1 110.2ZM97.5 108.9Q98.2 108.9 98.7 108.6Q99.2 108.3 99.4 107.9Q99.7 107.4 99.7 107V105.9Q99.6 106 99.3 106Q99.1 106.1 98.7 106.2Q98.4 106.2 98.1 106.3Q97.8 106.3 97.6 106.3Q97.2 106.4 96.8 106.5Q96.4 106.7 96.1 106.9Q95.9 107.2 95.9 107.6Q95.9 108 96.1 108.3Q96.3 108.6 96.7 108.7Q97 108.9 97.5 108.9ZM110.8 110.2Q109.8 110.2 109 109.6Q108.2 109.1 107.8 108.1Q107.3 107.2 107.3 105.8Q107.3 104.4 107.8 103.4Q108.2 102.5 109 101.9Q109.8 101.4 110.8 101.4Q111.6 101.4 112.1 101.7Q112.6 102 112.9 102.3Q113.1 102.7 113.3 102.9H113.4V98.7H115V110H113.4V108.7H113.3Q113.1 108.9 112.9 109.3Q112.6 109.6 112.1 109.9Q111.6 110.2 110.8 110.2ZM111.2 108.7Q111.9 108.7 112.4 108.4Q112.9 108 113.2 107.3Q113.4 106.7 113.4 105.8Q113.4 104.9 113.2 104.2Q112.9 103.6 112.4 103.2Q111.9 102.9 111.2 102.9Q110.5 102.9 110 103.2Q109.5 103.6 109.3 104.3Q109 104.9 109 105.8Q109 106.6 109.3 107.3Q109.5 108 110 108.4Q110.5 108.7 111.2 108.7ZM120.9 110.2Q119.7 110.2 118.8 109.6Q117.9 109.1 117.4 108.1Q116.9 107.1 116.9 105.8Q116.9 104.5 117.4 103.5Q117.8 102.5 118.7 102Q119.6 101.4 120.8 101.4Q121.5 101.4 122.2 101.7Q122.9 101.9 123.4 102.4Q123.9 102.9 124.2 103.7Q124.6 104.5 124.6 105.7V106.3H117.8V105H123.7L122.9 105.4Q122.9 104.7 122.7 104.1Q122.4 103.5 122 103.1Q121.5 102.8 120.8 102.8Q120.1 102.8 119.6 103.2Q119.1 103.5 118.8 104Q118.6 104.6 118.6 105.3V106.1Q118.6 107 118.9 107.6Q119.2 108.2 119.7 108.5Q120.2 108.8 120.9 108.8Q121.4 108.8 121.8 108.7Q122.2 108.5 122.4 108.3Q122.7 108 122.9 107.6L124.4 108Q124.2 108.6 123.7 109.1Q123.3 109.6 122.6 109.9Q121.8 110.2 120.9 110.2ZM134.1 101.5V102.9H129.5V101.5ZM130.8 99.5H132.4V107.7Q132.4 108.2 132.7 108.5Q132.9 108.7 133.4 108.7Q133.5 108.7 133.7 108.7Q133.9 108.6 134.1 108.6L134.4 109.9Q134.1 110 133.8 110.1Q133.5 110.1 133.2 110.1Q132.1 110.1 131.4 109.5Q130.8 108.9 130.8 107.8ZM138.7 110.1Q137.8 110.1 137.2 109.7Q136.5 109.4 136.2 108.7Q135.8 108 135.8 106.9V101.5H137.5V106.7Q137.5 107.6 137.9 108.1Q138.4 108.7 139.2 108.7Q139.8 108.7 140.3 108.4Q140.7 108.2 141 107.7Q141.2 107.2 141.2 106.6V101.5H142.9V110H141.3L141.3 107.9H141.4Q141.1 109.1 140.4 109.6Q139.6 110.1 138.7 110.1ZM145.1 110V101.5H146.7V102.9H146.8Q147.1 102.2 147.6 101.8Q148.2 101.4 149 101.4Q149.1 101.4 149.3 101.4Q149.5 101.4 149.7 101.5V103Q149.6 103 149.3 103Q149.1 103 148.8 103Q148.2 103 147.8 103.2Q147.3 103.4 147 103.9Q146.8 104.3 146.8 104.9V110ZM151.1 110V101.5H152.8V110ZM151.9 100.2Q151.5 100.2 151.2 100Q150.9 99.7 150.9 99.3Q150.9 98.8 151.2 98.6Q151.5 98.3 151.9 98.3Q152.4 98.3 152.7 98.6Q153 98.8 153 99.3Q153 99.7 152.7 100Q152.4 100.2 151.9 100.2ZM158.1 110.2Q157.1 110.2 156.4 109.9Q155.7 109.6 155.2 109.1Q154.8 108.6 154.6 107.9L156.2 107.5Q156.4 108.2 156.9 108.5Q157.3 108.8 158.1 108.8Q158.9 108.8 159.3 108.5Q159.8 108.2 159.8 107.7Q159.8 107.3 159.5 107Q159.2 106.7 158.6 106.6L157.2 106.3Q156 106 155.5 105.4Q154.9 104.9 154.9 104Q154.9 103.2 155.3 102.6Q155.7 102.1 156.5 101.7Q157.2 101.4 158.2 101.4Q159.1 101.4 159.7 101.7Q160.4 102 160.8 102.4Q161.2 102.9 161.4 103.5L159.9 103.9Q159.7 103.4 159.3 103.1Q158.9 102.7 158.2 102.7Q157.5 102.7 157 103.1Q156.6 103.4 156.6 103.9Q156.6 104.3 156.9 104.5Q157.2 104.8 157.9 105L159.2 105.3Q160.4 105.5 161 106.1Q161.5 106.7 161.5 107.5Q161.5 108.3 161.1 108.9Q160.7 109.5 159.9 109.8Q159.1 110.2 158.1 110.2ZM163.4 110V101.5H164.9L165 103.5H164.9Q165 102.8 165.4 102.3Q165.8 101.9 166.3 101.6Q166.8 101.4 167.4 101.4Q168.3 101.4 168.9 102Q169.4 102.5 169.6 103.6H169.4Q169.6 102.9 170 102.4Q170.4 101.9 171 101.6Q171.5 101.4 172.2 101.4Q173 101.4 173.6 101.7Q174.2 102 174.5 102.7Q174.9 103.3 174.9 104.3V110H173.2V104.5Q173.2 103.6 172.8 103.2Q172.3 102.9 171.6 102.9Q171.1 102.9 170.7 103.1Q170.4 103.3 170.2 103.7Q169.9 104.1 169.9 104.6V110H168.3V104.4Q168.3 103.7 167.9 103.3Q167.4 102.9 166.8 102.9Q166.3 102.9 165.9 103.1Q165.5 103.3 165.3 103.7Q165 104.1 165 104.7V110ZM180.7 110.2Q179.5 110.2 178.6 109.6Q177.7 109.1 177.2 108.1Q176.7 107.1 176.7 105.8Q176.7 104.5 177.2 103.5Q177.7 102.5 178.6 102Q179.5 101.4 180.7 101.4Q181.9 101.4 182.8 102Q183.7 102.5 184.2 103.5Q184.6 104.5 184.6 105.8Q184.6 107.1 184.2 108.1Q183.7 109.1 182.8 109.6Q181.9 110.2 180.7 110.2ZM180.7 108.8Q181.5 108.8 182 108.4Q182.5 108 182.7 107.3Q183 106.6 183 105.8Q183 105 182.7 104.3Q182.5 103.7 182 103.2Q181.5 102.8 180.7 102.8Q179.9 102.8 179.4 103.2Q178.9 103.7 178.7 104.3Q178.4 105 178.4 105.8Q178.4 106.6 178.7 107.3Q178.9 108 179.4 108.4Q179.9 108.8 180.7 108.8ZM194.2 110.2Q193 110.2 192.1 109.6Q191.2 109.1 190.7 108.1Q190.2 107.1 190.2 105.8Q190.2 104.5 190.7 103.5Q191.2 102.5 192.1 102Q193 101.4 194.2 101.4Q194.8 101.4 195.4 101.6Q196 101.8 196.5 102.1Q196.9 102.4 197.2 102.9Q197.6 103.3 197.7 103.9L196.1 104.3Q196.1 104 195.9 103.7Q195.7 103.4 195.5 103.2Q195.2 103.1 194.9 102.9Q194.6 102.8 194.2 102.8Q193.4 102.8 192.9 103.2Q192.4 103.6 192.2 104.3Q191.9 105 191.9 105.8Q191.9 106.6 192.2 107.3Q192.4 108 192.9 108.4Q193.4 108.8 194.2 108.8Q194.6 108.8 194.9 108.7Q195.2 108.5 195.5 108.3Q195.7 108.1 195.9 107.9Q196.1 107.6 196.2 107.2L197.7 107.6Q197.6 108.2 197.3 108.7Q196.9 109.2 196.5 109.5Q196 109.8 195.4 110Q194.8 110.2 194.2 110.2ZM203.1 110.2Q201.9 110.2 201 109.6Q200.2 109.1 199.7 108.1Q199.2 107.1 199.2 105.8Q199.2 104.5 199.7 103.5Q200.2 102.5 201 102Q201.9 101.4 203.1 101.4Q204.3 101.4 205.2 102Q206.1 102.5 206.6 103.5Q207.1 104.5 207.1 105.8Q207.1 107.1 206.6 108.1Q206.1 109.1 205.2 109.6Q204.3 110.2 203.1 110.2ZM203.1 108.8Q203.9 108.8 204.4 108.4Q204.9 108 205.2 107.3Q205.4 106.6 205.4 105.8Q205.4 105 205.2 104.3Q204.9 103.7 204.4 103.2Q203.9 102.8 203.1 102.8Q202.4 102.8 201.9 103.2Q201.4 103.7 201.1 104.3Q200.9 105 200.9 105.8Q200.9 106.6 201.1 107.3Q201.4 108 201.9 108.4Q202.4 108.8 203.1 108.8ZM210.6 105V110H208.9V101.5H210.5L210.5 103.6H210.4Q210.7 102.5 211.4 102Q212.1 101.4 213.1 101.4Q214 101.4 214.6 101.8Q215.3 102.2 215.7 102.9Q216 103.6 216 104.6V110H214.3V104.8Q214.3 103.9 213.9 103.4Q213.4 102.9 212.6 102.9Q212 102.9 211.6 103.1Q211.1 103.4 210.9 103.8Q210.6 104.3 210.6 105ZM225.5 110.2Q224.5 110.2 223.7 109.6Q222.9 109.1 222.5 108.1Q222 107.2 222 105.8Q222 104.4 222.5 103.4Q222.9 102.5 223.7 101.9Q224.5 101.4 225.5 101.4Q226.3 101.4 226.8 101.7Q227.3 102 227.6 102.3Q227.8 102.7 228 102.9H228.1V98.7H229.7V110H228.1V108.7H228Q227.8 108.9 227.6 109.3Q227.3 109.6 226.8 109.9Q226.3 110.2 225.5 110.2ZM225.9 108.7Q226.6 108.7 227.1 108.4Q227.6 108 227.8 107.3Q228.1 106.7 228.1 105.8Q228.1 104.9 227.8 104.2Q227.6 103.6 227.1 103.2Q226.6 102.9 225.9 102.9Q225.2 102.9 224.7 103.2Q224.2 103.6 223.9 104.3Q223.7 104.9 223.7 105.8Q223.7 106.6 223.9 107.3Q224.2 108 224.7 108.4Q225.2 108.7 225.9 108.7ZM234.3 110.2Q233.5 110.2 232.9 109.9Q232.2 109.6 231.9 109Q231.5 108.4 231.5 107.6Q231.5 106.9 231.8 106.4Q232 106 232.5 105.7Q233 105.4 233.6 105.3Q234.1 105.2 234.7 105.1Q235.5 105 236 104.9Q236.4 104.9 236.6 104.7Q236.9 104.6 236.9 104.3V104.3Q236.9 103.8 236.7 103.5Q236.5 103.1 236.1 103Q235.8 102.8 235.2 102.8Q234.7 102.8 234.3 103Q233.9 103.1 233.7 103.4Q233.4 103.7 233.3 103.9L231.7 103.5Q232 102.8 232.5 102.3Q233.1 101.9 233.8 101.6Q234.5 101.4 235.2 101.4Q235.7 101.4 236.3 101.6Q236.9 101.7 237.4 102Q237.9 102.3 238.2 102.9Q238.5 103.5 238.5 104.4V110H236.9V108.8H236.8Q236.7 109.2 236.3 109.5Q236 109.8 235.5 110Q235 110.2 234.3 110.2ZM234.7 108.9Q235.4 108.9 235.9 108.6Q236.4 108.3 236.6 107.9Q236.9 107.4 236.9 107V105.9Q236.8 106 236.5 106Q236.3 106.1 236 106.2Q235.6 106.2 235.3 106.3Q235 106.3 234.8 106.3Q234.4 106.4 234 106.5Q233.6 106.7 233.3 106.9Q233.1 107.2 233.1 107.6Q233.1 108 233.3 108.3Q233.5 108.6 233.9 108.7Q234.2 108.9 234.7 108.9ZM244.4 101.5V102.9H239.8V101.5ZM241 99.5H242.7V107.7Q242.7 108.2 242.9 108.5Q243.1 108.7 243.6 108.7Q243.8 108.7 244 108.7Q244.2 108.6 244.3 108.6L244.6 109.9Q244.4 110 244.1 110.1Q243.8 110.1 243.5 110.1Q242.3 110.1 241.7 109.5Q241 108.9 241 107.8ZM249.6 110.2Q248.4 110.2 247.5 109.6Q246.6 109.1 246.1 108.1Q245.7 107.1 245.7 105.8Q245.7 104.5 246.1 103.5Q246.6 102.5 247.5 102Q248.4 101.4 249.6 101.4Q250.8 101.4 251.7 102Q252.6 102.5 253.1 103.5Q253.6 104.5 253.6 105.8Q253.6 107.1 253.1 108.1Q252.6 109.1 251.7 109.6Q250.8 110.2 249.6 110.2ZM249.6 108.8Q250.4 108.8 250.9 108.4Q251.4 108 251.6 107.3Q251.9 106.6 251.9 105.8Q251.9 105 251.6 104.3Q251.4 103.7 250.9 103.2Q250.4 102.8 249.6 102.8Q248.8 102.8 248.3 103.2Q247.8 103.7 247.6 104.3Q247.4 105 247.4 105.8Q247.4 106.6 247.6 107.3Q247.8 108 248.3 108.4Q248.8 108.8 249.6 108.8ZM258.4 110.2Q257.5 110.2 256.8 109.9Q256.1 109.6 255.6 109.1Q255.2 108.6 255 107.9L256.6 107.5Q256.8 108.2 257.2 108.5Q257.7 108.8 258.5 108.8Q259.3 108.8 259.7 108.5Q260.2 108.2 260.2 107.7Q260.2 107.3 259.9 107Q259.6 106.7 259 106.6L257.6 106.3Q256.4 106 255.9 105.4Q255.3 104.9 255.3 104Q255.3 103.2 255.7 102.6Q256.1 102.1 256.9 101.7Q257.6 101.4 258.6 101.4Q259.5 101.4 260.1 101.7Q260.8 102 261.2 102.4Q261.6 102.9 261.8 103.5L260.3 103.9Q260.1 103.4 259.7 103.1Q259.3 102.7 258.6 102.7Q257.9 102.7 257.4 103.1Q257 103.4 257 103.9Q257 104.3 257.3 104.5Q257.6 104.8 258.3 105L259.6 105.3Q260.8 105.5 261.4 106.1Q261.9 106.7 261.9 107.5Q261.9 108.3 261.5 108.9Q261.1 109.5 260.3 109.8Q259.5 110.2 258.4 110.2ZM267.9 113.2V101.5H269.5V102.9H269.6Q269.8 102.7 270.1 102.3Q270.3 102 270.8 101.7Q271.3 101.4 272.1 101.4Q273.1 101.4 273.9 101.9Q274.7 102.5 275.2 103.4Q275.6 104.4 275.6 105.8Q275.6 107.2 275.2 108.1Q274.7 109.1 273.9 109.6Q273.1 110.2 272.1 110.2Q271.3 110.2 270.8 109.9Q270.4 109.6 270.1 109.3Q269.8 108.9 269.6 108.7H269.6V113.2ZM271.7 108.7Q272.4 108.7 272.9 108.4Q273.4 108 273.7 107.3Q273.9 106.6 273.9 105.8Q273.9 104.9 273.7 104.3Q273.4 103.6 272.9 103.2Q272.5 102.9 271.7 102.9Q271 102.9 270.5 103.2Q270 103.6 269.8 104.2Q269.5 104.9 269.5 105.8Q269.5 106.7 269.8 107.3Q270 108 270.5 108.4Q271 108.7 271.7 108.7ZM279.8 110.2Q279 110.2 278.4 109.9Q277.7 109.6 277.4 109Q277 108.4 277 107.6Q277 106.9 277.3 106.4Q277.5 106 278 105.7Q278.5 105.4 279.1 105.3Q279.6 105.2 280.2 105.1Q281 105 281.5 104.9Q281.9 104.9 282.1 104.7Q282.4 104.6 282.4 104.3V104.3Q282.4 103.8 282.2 103.5Q282 103.1 281.6 103Q281.3 102.8 280.7 102.8Q280.2 102.8 279.8 103Q279.4 103.1 279.2 103.4Q278.9 103.7 278.8 103.9L277.2 103.5Q277.5 102.8 278 102.3Q278.6 101.9 279.3 101.6Q280 101.4 280.7 101.4Q281.2 101.4 281.8 101.6Q282.4 101.7 282.9 102Q283.4 102.3 283.7 102.9Q284 103.5 284 104.4V110H282.4V108.8H282.3Q282.2 109.2 281.8 109.5Q281.5 109.8 281 110Q280.5 110.2 279.8 110.2ZM280.2 108.9Q280.9 108.9 281.4 108.6Q281.9 108.3 282.1 107.9Q282.4 107.4 282.4 107V105.9Q282.3 106 282 106Q281.8 106.1 281.5 106.2Q281.1 106.2 280.8 106.3Q280.5 106.3 280.3 106.3Q279.9 106.4 279.5 106.5Q279.1 106.7 278.8 106.9Q278.6 107.2 278.6 107.6Q278.6 108 278.8 108.3Q279 108.6 279.4 108.7Q279.7 108.9 280.2 108.9ZM286.3 110V101.5H287.9V102.9H288Q288.2 102.2 288.8 101.8Q289.4 101.4 290.1 101.4Q290.3 101.4 290.5 101.4Q290.7 101.4 290.8 101.5V103Q290.7 103 290.5 103Q290.2 103 290 103Q289.4 103 288.9 103.2Q288.5 103.4 288.2 103.9Q287.9 104.3 287.9 104.9V110ZM294.6 110.2Q293.8 110.2 293.2 109.9Q292.5 109.6 292.2 109Q291.8 108.4 291.8 107.6Q291.8 106.9 292.1 106.4Q292.3 106 292.8 105.7Q293.3 105.4 293.9 105.3Q294.4 105.2 295 105.1Q295.8 105 296.2 104.9Q296.7 104.9 296.9 104.7Q297.2 104.6 297.2 104.3V104.3Q297.2 103.8 297 103.5Q296.8 103.1 296.4 103Q296.1 102.8 295.5 102.8Q295 102.8 294.6 103Q294.2 103.1 294 103.4Q293.7 103.7 293.6 103.9L292 103.5Q292.3 102.8 292.8 102.3Q293.4 101.9 294.1 101.6Q294.8 101.4 295.5 101.4Q296 101.4 296.6 101.6Q297.2 101.7 297.7 102Q298.2 102.3 298.5 102.9Q298.8 103.5 298.8 104.4V110H297.2V108.8H297.1Q297 109.2 296.6 109.5Q296.3 109.8 295.8 110Q295.3 110.2 294.6 110.2ZM295 108.9Q295.7 108.9 296.2 108.6Q296.7 108.3 296.9 107.9Q297.2 107.4 297.2 107V105.9Q297.1 106 296.8 106Q296.6 106.1 296.3 106.2Q295.9 106.2 295.6 106.3Q295.3 106.3 295.1 106.3Q294.7 106.4 294.3 106.5Q293.9 106.7 293.6 106.9Q293.4 107.2 293.4 107.6Q293.4 108 293.6 108.3Q293.8 108.6 294.2 108.7Q294.5 108.9 295 108.9ZM308.8 110.2Q307.6 110.2 306.7 109.6Q305.8 109.1 305.3 108.1Q304.8 107.1 304.8 105.8Q304.8 104.5 305.3 103.5Q305.8 102.5 306.6 102Q307.5 101.4 308.7 101.4Q309.4 101.4 310.1 101.7Q310.8 101.9 311.3 102.4Q311.9 102.9 312.2 103.7Q312.5 104.5 312.5 105.7V106.3H305.7V105H311.6L310.8 105.4Q310.8 104.7 310.6 104.1Q310.4 103.5 309.9 103.1Q309.4 102.8 308.7 102.8Q308 102.8 307.5 103.2Q307 103.5 306.7 104Q306.5 104.6 306.5 105.3V106.1Q306.5 107 306.8 107.6Q307.1 108.2 307.6 108.5Q308.2 108.8 308.9 108.8Q309.3 108.8 309.7 108.7Q310.1 108.5 310.4 108.3Q310.6 108 310.8 107.6L312.4 108Q312.2 108.6 311.7 109.1Q311.2 109.6 310.5 109.9Q309.8 110.2 308.8 110.2ZM316 98.7V110H314.3V98.7ZM325.4 110.2Q324.5 110.2 323.7 109.9Q323 109.6 322.6 109.1Q322.1 108.6 322 107.9L323.5 107.5Q323.7 108.2 324.2 108.5Q324.7 108.8 325.4 108.8Q326.2 108.8 326.7 108.5Q327.2 108.2 327.2 107.7Q327.2 107.3 326.9 107Q326.6 106.7 326 106.6L324.5 106.3Q323.4 106 322.8 105.4Q322.2 104.9 322.2 104Q322.2 103.2 322.6 102.6Q323.1 102.1 323.8 101.7Q324.5 101.4 325.5 101.4Q326.4 101.4 327.1 101.7Q327.7 102 328.1 102.4Q328.5 102.9 328.7 103.5L327.2 103.9Q327 103.4 326.6 103.1Q326.3 102.7 325.5 102.7Q324.8 102.7 324.3 103.1Q323.9 103.4 323.9 103.9Q323.9 104.3 324.2 104.5Q324.5 104.8 325.2 105L326.6 105.3Q327.7 105.5 328.3 106.1Q328.9 106.7 328.9 107.5Q328.9 108.3 328.4 108.9Q328 109.5 327.2 109.8Q326.4 110.2 325.4 110.2ZM333.6 110.1Q332.7 110.1 332.1 109.7Q331.4 109.4 331.1 108.7Q330.7 108 330.7 106.9V101.5H332.4V106.7Q332.4 107.6 332.8 108.1Q333.3 108.7 334.1 108.7Q334.7 108.7 335.2 108.4Q335.6 108.2 335.9 107.7Q336.1 107.2 336.1 106.6V101.5H337.8V110H336.2L336.2 107.9H336.3Q336 109.1 335.3 109.6Q334.5 110.1 333.6 110.1ZM340 110V101.5H341.6V102.9H341.7Q342 102.2 342.5 101.8Q343.1 101.4 343.9 101.4Q344 101.4 344.2 101.4Q344.4 101.4 344.6 101.5V103Q344.5 103 344.2 103Q344 103 343.7 103Q343.1 103 342.7 103.2Q342.2 103.4 341.9 103.9Q341.7 104.3 341.7 104.9V110ZM353.3 110.2Q352.3 110.2 351.5 109.6Q350.7 109.1 350.2 108.1Q349.8 107.2 349.8 105.8Q349.8 104.4 350.2 103.4Q350.7 102.5 351.5 101.9Q352.3 101.4 353.3 101.4Q354.1 101.4 354.6 101.7Q355 102 355.3 102.3Q355.6 102.7 355.7 102.9H355.8V98.7H357.5V110H355.9V108.7H355.7Q355.6 108.9 355.3 109.3Q355 109.6 354.5 109.9Q354.1 110.2 353.3 110.2ZM353.7 108.7Q354.4 108.7 354.9 108.4Q355.3 108 355.6 107.3Q355.8 106.7 355.8 105.8Q355.8 104.9 355.6 104.2Q355.3 103.6 354.9 103.2Q354.4 102.9 353.7 102.9Q352.9 102.9 352.4 103.2Q351.9 103.6 351.7 104.3Q351.5 104.9 351.5 105.8Q351.5 106.6 351.7 107.3Q351.9 108 352.4 108.4Q352.9 108.7 353.7 108.7ZM363.4 110.2Q362.1 110.2 361.2 109.6Q360.3 109.1 359.8 108.1Q359.3 107.1 359.3 105.8Q359.3 104.5 359.8 103.5Q360.3 102.5 361.2 102Q362 101.4 363.2 101.4Q364 101.4 364.6 101.7Q365.3 101.9 365.8 102.4Q366.4 102.9 366.7 103.7Q367 104.5 367 105.7V106.3H360.3V105H366.1L365.4 105.4Q365.4 104.7 365.1 104.1Q364.9 103.5 364.4 103.1Q363.9 102.8 363.2 102.8Q362.5 102.8 362 103.2Q361.5 103.5 361.3 104Q361 104.6 361 105.3V106.1Q361 107 361.3 107.6Q361.6 108.2 362.1 108.5Q362.7 108.8 363.4 108.8Q363.9 108.8 364.2 108.7Q364.6 108.5 364.9 108.3Q365.2 108 365.3 107.6L366.9 108Q366.7 108.6 366.2 109.1Q365.7 109.6 365 109.9Q364.3 110.2 363.4 110.2ZM377.2 106.4H378.9L380.1 107.9L380.6 108.6L382.5 111H380.8L379.5 109.4L379.1 108.8ZM377.8 110.2Q376.3 110.2 375.2 109.5Q374 108.8 373.4 107.5Q372.7 106.2 372.7 104.4Q372.7 102.6 373.4 101.3Q374 100 375.2 99.3Q376.3 98.6 377.8 98.6Q379.3 98.6 380.4 99.3Q381.5 100 382.2 101.3Q382.9 102.6 382.9 104.4Q382.9 106.2 382.2 107.5Q381.5 108.8 380.4 109.5Q379.3 110.2 377.8 110.2ZM377.8 108.6Q378.8 108.6 379.5 108.1Q380.3 107.6 380.7 106.7Q381.2 105.7 381.2 104.4Q381.2 103 380.7 102.1Q380.3 101.1 379.5 100.6Q378.8 100.1 377.8 100.1Q376.8 100.1 376.1 100.6Q375.3 101.1 374.9 102.1Q374.4 103 374.4 104.4Q374.4 105.7 374.9 106.7Q375.3 107.6 376.1 108.1Q376.8 108.6 377.8 108.6ZM387.8 110.1Q386.9 110.1 386.2 109.7Q385.6 109.4 385.2 108.7Q384.9 108 384.9 106.9V101.5H386.5V106.7Q386.5 107.6 387 108.1Q387.5 108.7 388.3 108.7Q388.9 108.7 389.3 108.4Q389.8 108.2 390 107.7Q390.3 107.2 390.3 106.6V101.5H392V110H390.4L390.4 107.9H390.5Q390.1 109.1 389.4 109.6Q388.7 110.1 387.8 110.1ZM394.2 110V101.5H395.9V110ZM395 100.2Q394.6 100.2 394.3 100Q394 99.7 394 99.3Q394 98.8 394.3 98.6Q394.6 98.3 395 98.3Q395.5 98.3 395.8 98.6Q396.1 98.8 396.1 99.3Q396.1 99.7 395.8 100Q395.5 100.2 395 100.2ZM399.8 105V110H398.1V101.5H399.7L399.7 103.6H399.5Q399.9 102.5 400.6 102Q401.3 101.4 402.3 101.4Q403.2 101.4 403.8 101.8Q404.5 102.2 404.8 102.9Q405.2 103.6 405.2 104.6V110H403.5V104.8Q403.5 103.9 403 103.4Q402.6 102.9 401.7 102.9Q401.2 102.9 400.7 103.1Q400.3 103.4 400 103.8Q399.8 104.3 399.8 105ZM411 101.5V102.9H406.5V101.5ZM407.7 99.5H409.4V107.7Q409.4 108.2 409.6 108.5Q409.8 108.7 410.3 108.7Q410.4 108.7 410.6 108.7Q410.8 108.6 411 108.6L411.3 109.9Q411 110 410.7 110.1Q410.4 110.1 410.1 110.1Q409 110.1 408.3 109.5Q407.7 108.9 407.7 107.8ZM415.1 110.2Q414.3 110.2 413.6 109.9Q413 109.6 412.6 109Q412.2 108.4 412.2 107.6Q412.2 106.9 412.5 106.4Q412.8 106 413.2 105.7Q413.7 105.4 414.3 105.3Q414.9 105.2 415.5 105.1Q416.2 105 416.7 104.9Q417.2 104.9 417.4 104.7Q417.6 104.6 417.6 104.3V104.3Q417.6 103.8 417.4 103.5Q417.2 103.1 416.9 103Q416.5 102.8 416 102.8Q415.4 102.8 415 103Q414.6 103.1 414.4 103.4Q414.1 103.7 414 103.9L412.5 103.5Q412.7 102.8 413.3 102.3Q413.8 101.9 414.5 101.6Q415.2 101.4 416 101.4Q416.5 101.4 417 101.6Q417.6 101.7 418.1 102Q418.6 102.3 418.9 102.9Q419.3 103.5 419.3 104.4V110H417.7V108.8H417.6Q417.4 109.2 417.1 109.5Q416.8 109.8 416.3 110Q415.8 110.2 415.1 110.2ZM415.4 108.9Q416.1 108.9 416.6 108.6Q417.1 108.3 417.3 107.9Q417.6 107.4 417.6 107V105.9Q417.5 106 417.3 106Q417 106.1 416.7 106.2Q416.4 106.2 416.1 106.3Q415.8 106.3 415.6 106.3Q415.1 106.4 414.7 106.5Q414.3 106.7 414.1 106.9Q413.8 107.2 413.8 107.6Q413.8 108 414.1 108.3Q414.3 108.6 414.6 108.7Q415 108.9 415.4 108.9ZM423.2 105V110H421.5V101.5H423.1L423.1 103.6H422.9Q423.3 102.5 424 102Q424.7 101.4 425.7 101.4Q426.6 101.4 427.2 101.8Q427.9 102.2 428.2 102.9Q428.6 103.6 428.6 104.6V110H426.9V104.8Q426.9 103.9 426.4 103.4Q426 102.9 425.1 102.9Q424.6 102.9 424.1 103.1Q423.7 103.4 423.4 103.8Q423.2 104.3 423.2 105ZM433.2 110.2Q432.4 110.2 431.7 109.9Q431.1 109.6 430.7 109Q430.3 108.4 430.3 107.6Q430.3 106.9 430.6 106.4Q430.9 106 431.4 105.7Q431.8 105.4 432.4 105.3Q433 105.2 433.6 105.1Q434.3 105 434.8 104.9Q435.3 104.9 435.5 104.7Q435.7 104.6 435.7 104.3V104.3Q435.7 103.8 435.5 103.5Q435.4 103.1 435 103Q434.6 102.8 434.1 102.8Q433.6 102.8 433.2 103Q432.8 103.1 432.5 103.4Q432.3 103.7 432.1 103.9L430.6 103.5Q430.9 102.8 431.4 102.3Q431.9 101.9 432.6 101.6Q433.3 101.4 434.1 101.4Q434.6 101.4 435.2 101.6Q435.7 101.7 436.2 102Q436.8 102.3 437.1 102.9Q437.4 103.5 437.4 104.4V110H435.8V108.8H435.7Q435.5 109.2 435.2 109.5Q434.9 109.8 434.4 110Q433.9 110.2 433.2 110.2ZM433.6 108.9Q434.2 108.9 434.7 108.6Q435.2 108.3 435.5 107.9Q435.7 107.4 435.7 107V105.9Q435.6 106 435.4 106Q435.1 106.1 434.8 106.2Q434.5 106.2 434.2 106.3Q433.9 106.3 433.7 106.3Q433.2 106.4 432.8 106.5Q432.4 106.7 432.2 106.9Q432 107.2 432 107.6Q432 108 432.2 108.3Q432.4 108.6 432.7 108.7Q433.1 108.9 433.6 108.9ZM443.9 110V98.7H447.9Q449.2 98.7 450.1 99.2Q451 99.6 451.4 100.4Q451.8 101.2 451.8 102.3Q451.8 103.3 451.4 104.1Q451 104.9 450.1 105.3Q449.2 105.7 447.9 105.7H444.9V104.3H447.8Q448.6 104.3 449.1 104Q449.6 103.8 449.8 103.3Q450.1 102.9 450.1 102.3Q450.1 101.6 449.8 101.2Q449.6 100.7 449.1 100.5Q448.6 100.2 447.7 100.2H445.6V110ZM450.3 110 447.6 104.9H449.5L452.3 110ZM457.4 110.2Q456.2 110.2 455.3 109.6Q454.4 109.1 453.9 108.1Q453.4 107.1 453.4 105.8Q453.4 104.5 453.9 103.5Q454.4 102.5 455.3 102Q456.2 101.4 457.4 101.4Q458.6 101.4 459.5 102Q460.3 102.5 460.8 103.5Q461.3 104.5 461.3 105.8Q461.3 107.1 460.8 108.1Q460.3 109.1 459.5 109.6Q458.6 110.2 457.4 110.2ZM457.4 108.8Q458.1 108.8 458.6 108.4Q459.1 108 459.4 107.3Q459.6 106.6 459.6 105.8Q459.6 105 459.4 104.3Q459.1 103.7 458.6 103.2Q458.1 102.8 457.4 102.8Q456.6 102.8 456.1 103.2Q455.6 103.7 455.4 104.3Q455.1 105 455.1 105.8Q455.1 106.6 455.4 107.3Q455.6 108 456.1 108.4Q456.6 108.8 457.4 108.8ZM466.7 110.2Q465.5 110.2 464.6 109.6Q463.8 109.1 463.3 108.1Q462.8 107.1 462.8 105.8Q462.8 104.5 463.3 103.5Q463.8 102.5 464.6 102Q465.5 101.4 466.7 101.4Q467.9 101.4 468.8 102Q469.7 102.5 470.2 103.5Q470.7 104.5 470.7 105.8Q470.7 107.1 470.2 108.1Q469.7 109.1 468.8 109.6Q467.9 110.2 466.7 110.2ZM466.7 108.8Q467.5 108.8 468 108.4Q468.5 108 468.8 107.3Q469 106.6 469 105.8Q469 105 468.8 104.3Q468.5 103.7 468 103.2Q467.5 102.8 466.7 102.8Q466 102.8 465.5 103.2Q465 103.7 464.7 104.3Q464.5 105 464.5 105.8Q464.5 106.6 464.7 107.3Q465 108 465.5 108.4Q466 108.8 466.7 108.8ZM473.8 110.1Q473.3 110.1 473 109.8Q472.6 109.5 472.6 109Q472.6 108.5 473 108.2Q473.3 107.9 473.8 107.9Q474.2 107.9 474.6 108.2Q474.9 108.5 474.9 109Q474.9 109.5 474.6 109.8Q474.2 110.1 473.8 110.1ZM473.8 104.2Q473.3 104.2 473 103.8Q472.6 103.5 472.6 103Q472.6 102.6 473 102.3Q473.3 101.9 473.8 101.9Q474.2 101.9 474.6 102.3Q474.9 102.6 474.9 103Q474.9 103.5 474.6 103.8Q474.2 104.2 473.8 104.2Z" fill="#c9c4ba"/><path d="M33.1 133V124.5H34.7V125.9H34.8Q35.1 125.2 35.6 124.8Q36.2 124.4 37 124.4Q37.1 124.4 37.3 124.4Q37.5 124.4 37.7 124.5V126Q37.6 126 37.3 126Q37.1 126 36.8 126Q36.2 126 35.8 126.2Q35.3 126.4 35 126.9Q34.8 127.3 34.8 127.9V133ZM41.5 133.2Q40.7 133.2 40 132.9Q39.4 132.6 39 132Q38.6 131.4 38.6 130.6Q38.6 129.9 38.9 129.4Q39.2 129 39.6 128.7Q40.1 128.4 40.7 128.3Q41.3 128.2 41.9 128.1Q42.6 128 43.1 127.9Q43.6 127.9 43.8 127.7Q44 127.6 44 127.3V127.3Q44 126.8 43.8 126.5Q43.6 126.1 43.3 126Q42.9 125.8 42.4 125.8Q41.8 125.8 41.4 126Q41 126.1 40.8 126.4Q40.6 126.7 40.4 126.9L38.9 126.5Q39.2 125.8 39.7 125.3Q40.2 124.9 40.9 124.6Q41.6 124.4 42.4 124.4Q42.9 124.4 43.4 124.6Q44 124.7 44.5 125Q45 125.3 45.4 125.9Q45.7 126.5 45.7 127.4V133H44.1V131.8H44Q43.8 132.2 43.5 132.5Q43.2 132.8 42.7 133Q42.2 133.2 41.5 133.2ZM41.9 131.9Q42.5 131.9 43 131.6Q43.5 131.3 43.8 130.9Q44 130.4 44 130V128.9Q43.9 129 43.7 129Q43.4 129.1 43.1 129.2Q42.8 129.2 42.5 129.3Q42.2 129.3 42 129.3Q41.5 129.4 41.1 129.5Q40.7 129.7 40.5 129.9Q40.3 130.2 40.3 130.6Q40.3 131 40.5 131.3Q40.7 131.6 41 131.7Q41.4 131.9 41.9 131.9ZM51.1 133.2Q50 133.2 49.2 132.6Q48.4 132.1 48 131.1Q47.5 130.2 47.5 128.8Q47.5 127.4 48 126.4Q48.4 125.5 49.2 124.9Q50 124.4 51.1 124.4Q51.9 124.4 52.3 124.7Q52.8 125 53.1 125.3Q53.4 125.7 53.5 125.9H53.6V121.7H55.3V133H53.6V131.7H53.5Q53.4 131.9 53.1 132.3Q52.8 132.6 52.3 132.9Q51.8 133.2 51.1 133.2ZM51.4 131.7Q52.1 131.7 52.6 131.4Q53.1 131 53.4 130.3Q53.6 129.7 53.6 128.8Q53.6 127.9 53.4 127.2Q53.1 126.6 52.6 126.2Q52.1 125.9 51.4 125.9Q50.7 125.9 50.2 126.2Q49.7 126.6 49.5 127.3Q49.2 127.9 49.2 128.8Q49.2 129.6 49.5 130.3Q49.7 131 50.2 131.4Q50.7 131.7 51.4 131.7ZM59.9 133.2Q59.1 133.2 58.4 132.9Q57.8 132.6 57.4 132Q57 131.4 57 130.6Q57 129.9 57.3 129.4Q57.6 129 58 128.7Q58.5 128.4 59.1 128.3Q59.7 128.2 60.3 128.1Q61 128 61.5 127.9Q61.9 127.9 62.2 127.7Q62.4 127.6 62.4 127.3V127.3Q62.4 126.8 62.2 126.5Q62 126.1 61.7 126Q61.3 125.8 60.8 125.8Q60.2 125.8 59.8 126Q59.4 126.1 59.2 126.4Q58.9 126.7 58.8 126.9L57.2 126.5Q57.5 125.8 58.1 125.3Q58.6 124.9 59.3 124.6Q60 124.4 60.7 124.4Q61.3 124.4 61.8 124.6Q62.4 124.7 62.9 125Q63.4 125.3 63.7 125.9Q64.1 126.5 64.1 127.4V133H62.4V131.8H62.4Q62.2 132.2 61.9 132.5Q61.5 132.8 61.1 133Q60.6 133.2 59.9 133.2ZM60.2 131.9Q60.9 131.9 61.4 131.6Q61.9 131.3 62.1 130.9Q62.4 130.4 62.4 130V128.9Q62.3 129 62.1 129Q61.8 129.1 61.5 129.2Q61.2 129.2 60.9 129.3Q60.5 129.3 60.4 129.3Q59.9 129.4 59.5 129.5Q59.1 129.7 58.9 129.9Q58.6 130.2 58.6 130.6Q58.6 131 58.8 131.3Q59.1 131.6 59.4 131.7Q59.8 131.9 60.2 131.9ZM66.3 133V124.5H67.9V125.9H68Q68.2 125.2 68.8 124.8Q69.4 124.4 70.1 124.4Q70.3 124.4 70.5 124.4Q70.7 124.4 70.8 124.5V126Q70.8 126 70.5 126Q70.2 126 70 126Q69.4 126 68.9 126.2Q68.5 126.4 68.2 126.9Q68 127.3 68 127.9V133ZM72.1 135.8 72.8 131.4H74.6L73.3 135.8ZM81.1 136.2V124.5H82.7V125.9H82.9Q83 125.7 83.3 125.3Q83.6 125 84.1 124.7Q84.5 124.4 85.3 124.4Q86.3 124.4 87.1 124.9Q87.9 125.5 88.4 126.4Q88.9 127.4 88.9 128.8Q88.9 130.2 88.4 131.1Q88 132.1 87.2 132.6Q86.4 133.2 85.3 133.2Q84.6 133.2 84.1 132.9Q83.6 132.6 83.3 132.3Q83 131.9 82.9 131.7H82.8V136.2ZM85 131.7Q85.7 131.7 86.2 131.4Q86.7 131 86.9 130.3Q87.2 129.6 87.2 128.8Q87.2 127.9 86.9 127.3Q86.7 126.6 86.2 126.2Q85.7 125.9 85 125.9Q84.2 125.9 83.8 126.2Q83.3 126.6 83 127.2Q82.8 127.9 82.8 128.8Q82.8 129.7 83 130.3Q83.3 131 83.8 131.4Q84.3 131.7 85 131.7ZM90.7 133V124.5H92.3V125.9H92.4Q92.6 125.2 93.2 124.8Q93.8 124.4 94.6 124.4Q94.7 124.4 94.9 124.4Q95.1 124.4 95.3 124.5V126Q95.2 126 94.9 126Q94.6 126 94.4 126Q93.8 126 93.3 126.2Q92.9 126.4 92.6 126.9Q92.4 127.3 92.4 127.9V133ZM100.3 133.2Q99.1 133.2 98.2 132.6Q97.3 132.1 96.8 131.1Q96.3 130.1 96.3 128.8Q96.3 127.5 96.8 126.5Q97.3 125.5 98.2 125Q99.1 124.4 100.3 124.4Q101.5 124.4 102.3 125Q103.2 125.5 103.7 126.5Q104.2 127.5 104.2 128.8Q104.2 130.1 103.7 131.1Q103.2 132.1 102.3 132.6Q101.5 133.2 100.3 133.2ZM100.3 131.8Q101 131.8 101.5 131.4Q102 131 102.3 130.3Q102.5 129.6 102.5 128.8Q102.5 128 102.3 127.3Q102 126.7 101.5 126.2Q101 125.8 100.3 125.8Q99.5 125.8 99 126.2Q98.5 126.7 98.3 127.3Q98 128 98 128.8Q98 129.6 98.3 130.3Q98.5 131 99 131.4Q99.5 131.8 100.3 131.8ZM107.7 128V133H106.1V124.5H107.7L107.7 126.6H107.5Q107.9 125.5 108.6 125Q109.3 124.4 110.3 124.4Q111.1 124.4 111.8 124.8Q112.4 125.2 112.8 125.9Q113.1 126.6 113.1 127.6V133H111.5V127.8Q111.5 126.9 111 126.4Q110.5 125.9 109.7 125.9Q109.1 125.9 108.7 126.1Q108.2 126.4 108 126.8Q107.7 127.3 107.7 128ZM118.9 133.2Q117.8 133.2 116.9 132.6Q116 132.1 115.5 131.1Q115 130.1 115 128.8Q115 127.5 115.5 126.5Q116 125.5 116.9 125Q117.8 124.4 118.9 124.4Q120.1 124.4 121 125Q121.9 125.5 122.4 126.5Q122.9 127.5 122.9 128.8Q122.9 130.1 122.4 131.1Q121.9 132.1 121 132.6Q120.1 133.2 118.9 133.2ZM118.9 131.8Q119.7 131.8 120.2 131.4Q120.7 131 121 130.3Q121.2 129.6 121.2 128.8Q121.2 128 121 127.3Q120.7 126.7 120.2 126.2Q119.7 125.8 118.9 125.8Q118.2 125.8 117.7 126.2Q117.2 126.7 116.9 127.3Q116.7 128 116.7 128.8Q116.7 129.6 116.9 130.3Q117.2 131 117.7 131.4Q118.2 131.8 118.9 131.8ZM118.3 123.4 119.3 121.2H121L119.5 123.4ZM127.8 133.2Q126.9 133.2 126.2 132.9Q125.4 132.6 125 132.1Q124.5 131.6 124.4 130.9L125.9 130.5Q126.1 131.2 126.6 131.5Q127.1 131.8 127.8 131.8Q128.6 131.8 129.1 131.5Q129.6 131.2 129.6 130.7Q129.6 130.3 129.3 130Q129 129.7 128.4 129.6L126.9 129.3Q125.8 129 125.2 128.4Q124.6 127.9 124.6 127Q124.6 126.2 125 125.6Q125.5 125.1 126.2 124.7Q126.9 124.4 127.9 124.4Q128.8 124.4 129.5 124.7Q130.1 125 130.5 125.4Q130.9 125.9 131.1 126.5L129.6 126.9Q129.4 126.4 129 126.1Q128.7 125.7 127.9 125.7Q127.2 125.7 126.8 126.1Q126.3 126.4 126.3 126.9Q126.3 127.3 126.6 127.5Q126.9 127.8 127.6 128L129 128.3Q130.1 128.5 130.7 129.1Q131.3 129.7 131.3 130.5Q131.3 131.3 130.8 131.9Q130.4 132.5 129.6 132.8Q128.8 133.2 127.8 133.2ZM136.7 124.5V125.9H132.1V124.5ZM133.4 122.5H135V130.7Q135 131.2 135.2 131.5Q135.5 131.7 136 131.7Q136.1 131.7 136.3 131.7Q136.5 131.6 136.7 131.6L137 132.9Q136.7 133 136.4 133.1Q136.1 133.1 135.8 133.1Q134.6 133.1 134 132.5Q133.4 131.9 133.4 130.8ZM138.4 133V124.5H140V133ZM139.2 123.2Q138.8 123.2 138.5 123Q138.2 122.7 138.2 122.3Q138.2 121.8 138.5 121.6Q138.8 121.3 139.2 121.3Q139.6 121.3 140 121.6Q140.3 121.8 140.3 122.3Q140.3 122.7 140 123Q139.6 123.2 139.2 123.2ZM145.8 133.2Q144.6 133.2 143.8 132.6Q142.9 132.1 142.4 131.1Q141.9 130.1 141.9 128.8Q141.9 127.5 142.4 126.5Q142.9 125.5 143.8 125Q144.6 124.4 145.8 124.4Q146.5 124.4 147.1 124.6Q147.6 124.8 148.1 125.1Q148.6 125.4 148.9 125.9Q149.2 126.3 149.4 126.9L147.8 127.3Q147.7 127 147.5 126.7Q147.4 126.4 147.1 126.2Q146.9 126.1 146.6 125.9Q146.2 125.8 145.8 125.8Q145.1 125.8 144.6 126.2Q144.1 126.6 143.8 127.3Q143.6 128 143.6 128.8Q143.6 129.6 143.8 130.3Q144.1 131 144.6 131.4Q145.1 131.8 145.8 131.8Q146.2 131.8 146.6 131.7Q146.9 131.5 147.1 131.3Q147.4 131.1 147.6 130.9Q147.7 130.6 147.8 130.2L149.4 130.6Q149.2 131.2 148.9 131.7Q148.6 132.2 148.1 132.5Q147.7 132.8 147.1 133Q146.5 133.2 145.8 133.2ZM154.8 133.2Q153.6 133.2 152.7 132.6Q151.8 132.1 151.3 131.1Q150.8 130.1 150.8 128.8Q150.8 127.5 151.3 126.5Q151.8 125.5 152.7 125Q153.6 124.4 154.8 124.4Q156 124.4 156.9 125Q157.8 125.5 158.2 126.5Q158.7 127.5 158.7 128.8Q158.7 130.1 158.2 131.1Q157.8 132.1 156.9 132.6Q156 133.2 154.8 133.2ZM154.8 131.8Q155.6 131.8 156.1 131.4Q156.6 131 156.8 130.3Q157.1 129.6 157.1 128.8Q157.1 128 156.8 127.3Q156.6 126.7 156.1 126.2Q155.6 125.8 154.8 125.8Q154 125.8 153.5 126.2Q153 126.7 152.8 127.3Q152.5 128 152.5 128.8Q152.5 129.6 152.8 130.3Q153 131 153.5 131.4Q154 131.8 154.8 131.8ZM164.6 136 165 134.7 165.2 134.7Q165.6 134.8 166 134.8Q166.3 134.7 166.6 134.5Q166.8 134.2 167 133.7L167.2 133L164 124.5H165.7L167.4 129.3Q167.7 130.2 167.9 130.9Q168.1 131.7 168.3 132.5H167.8Q168 131.7 168.2 130.9Q168.4 130.1 168.7 129.3L170.4 124.5H172.2L168.5 134.2Q168.2 134.9 167.9 135.3Q167.5 135.8 167 136Q166.4 136.2 165.8 136.2Q165.4 136.2 165.1 136.2Q164.8 136.1 164.6 136ZM181.4 124.5V125.9H176.8V124.5ZM178 122.5H179.7V130.7Q179.7 131.2 179.9 131.5Q180.1 131.7 180.6 131.7Q180.8 131.7 181 131.7Q181.2 131.6 181.3 131.6L181.6 132.9Q181.4 133 181 133.1Q180.7 133.1 180.5 133.1Q179.3 133.1 178.7 132.5Q178 131.9 178 130.8ZM186.6 133.2Q185.4 133.2 184.5 132.6Q183.6 132.1 183.1 131.1Q182.7 130.1 182.7 128.8Q182.7 127.5 183.1 126.5Q183.6 125.5 184.5 125Q185.4 124.4 186.6 124.4Q187.8 124.4 188.7 125Q189.6 125.5 190.1 126.5Q190.6 127.5 190.6 128.8Q190.6 130.1 190.1 131.1Q189.6 132.1 188.7 132.6Q187.8 133.2 186.6 133.2ZM186.6 131.8Q187.4 131.8 187.9 131.4Q188.4 131 188.6 130.3Q188.9 129.6 188.9 128.8Q188.9 128 188.6 127.3Q188.4 126.7 187.9 126.2Q187.4 125.8 186.6 125.8Q185.8 125.8 185.3 126.2Q184.8 126.7 184.6 127.3Q184.3 128 184.3 128.8Q184.3 129.6 184.6 130.3Q184.8 131 185.3 131.4Q185.8 131.8 186.6 131.8ZM192.4 133V124.5H194V125.9H194.1Q194.3 125.2 194.9 124.8Q195.5 124.4 196.2 124.4Q196.4 124.4 196.6 124.4Q196.8 124.4 197 124.5V126Q196.9 126 196.6 126Q196.3 126 196.1 126Q195.5 126 195 126.2Q194.6 126.4 194.3 126.9Q194.1 127.3 194.1 127.9V133ZM198.4 133V124.5H200V125.9H200.1Q200.3 125.2 200.9 124.8Q201.5 124.4 202.2 124.4Q202.4 124.4 202.6 124.4Q202.8 124.4 202.9 124.5V126Q202.9 126 202.6 126Q202.3 126 202.1 126Q201.5 126 201 126.2Q200.6 126.4 200.3 126.9Q200.1 127.3 200.1 127.9V133ZM208 133.2Q206.8 133.2 205.9 132.6Q205 132.1 204.5 131.1Q204 130.1 204 128.8Q204 127.5 204.5 126.5Q205 125.5 205.8 125Q206.7 124.4 207.9 124.4Q208.6 124.4 209.3 124.7Q210 124.9 210.5 125.4Q211 125.9 211.4 126.7Q211.7 127.5 211.7 128.7V129.3H204.9V128H210.8L210 128.4Q210 127.7 209.8 127.1Q209.6 126.5 209.1 126.1Q208.6 125.8 207.9 125.8Q207.2 125.8 206.7 126.2Q206.2 126.5 205.9 127Q205.7 127.6 205.7 128.3V129.1Q205.7 130 206 130.6Q206.3 131.2 206.8 131.5Q207.3 131.8 208.1 131.8Q208.5 131.8 208.9 131.7Q209.3 131.5 209.6 131.3Q209.8 131 210 130.6L211.5 131Q211.3 131.6 210.9 132.1Q210.4 132.6 209.7 132.9Q208.9 133.2 208 133.2ZM221.3 133.2Q220 133.2 219.1 132.6Q218.2 132.1 217.7 131.1Q217.2 130.1 217.2 128.8Q217.2 127.5 217.7 126.5Q218.2 125.5 219.1 125Q220 124.4 221.1 124.4Q221.9 124.4 222.5 124.7Q223.2 124.9 223.7 125.4Q224.3 125.9 224.6 126.7Q224.9 127.5 224.9 128.7V129.3H218.2V128H224.1L223.3 128.4Q223.3 127.7 223 127.1Q222.8 126.5 222.3 126.1Q221.8 125.8 221.1 125.8Q220.4 125.8 219.9 126.2Q219.4 126.5 219.2 127Q218.9 127.6 218.9 128.3V129.1Q218.9 130 219.2 130.6Q219.5 131.2 220 131.5Q220.6 131.8 221.3 131.8Q221.8 131.8 222.1 131.7Q222.5 131.5 222.8 131.3Q223.1 131 223.2 130.6L224.8 131Q224.6 131.6 224.1 132.1Q223.6 132.6 222.9 132.9Q222.2 133.2 221.3 133.2ZM228.4 128V133H226.7V124.5H228.3L228.3 126.6H228.2Q228.5 125.5 229.2 125Q229.9 124.4 230.9 124.4Q231.8 124.4 232.4 124.8Q233.1 125.2 233.5 125.9Q233.8 126.6 233.8 127.6V133H232.2V127.8Q232.2 126.9 231.7 126.4Q231.2 125.9 230.4 125.9Q229.8 125.9 229.4 126.1Q228.9 126.4 228.7 126.8Q228.4 127.3 228.4 128ZM242.6 133 239.4 124.5H241.2L242.9 129.3Q243.2 130.1 243.4 130.9Q243.6 131.7 243.8 132.5H243.3Q243.5 131.7 243.7 130.9Q243.9 130.1 244.2 129.3L245.8 124.5H247.6L244.4 133ZM249.1 133V124.5H250.8V133ZM249.9 123.2Q249.5 123.2 249.2 123Q248.9 122.7 248.9 122.3Q248.9 121.8 249.2 121.6Q249.5 121.3 249.9 121.3Q250.4 121.3 250.7 121.6Q251 121.8 251 122.3Q251 122.7 250.7 123Q250.4 123.2 249.9 123.2ZM255.4 133 252.2 124.5H254L255.7 129.3Q256 130.1 256.2 130.9Q256.4 131.7 256.6 132.5H256.1Q256.3 131.7 256.5 130.9Q256.7 130.1 257 129.3L258.6 124.5H260.4L257.2 133ZM265.5 133.2Q264.3 133.2 263.4 132.6Q262.5 132.1 262 131.1Q261.5 130.1 261.5 128.8Q261.5 127.5 262 126.5Q262.5 125.5 263.4 125Q264.3 124.4 265.5 124.4Q266.7 124.4 267.6 125Q268.4 125.5 268.9 126.5Q269.4 127.5 269.4 128.8Q269.4 130.1 268.9 131.1Q268.4 132.1 267.6 132.6Q266.7 133.2 265.5 133.2ZM265.5 131.8Q266.2 131.8 266.7 131.4Q267.2 131 267.5 130.3Q267.7 129.6 267.7 128.8Q267.7 128 267.5 127.3Q267.2 126.7 266.7 126.2Q266.2 125.8 265.5 125.8Q264.7 125.8 264.2 126.2Q263.7 126.7 263.5 127.3Q263.2 128 263.2 128.8Q263.2 129.6 263.5 130.3Q263.7 131 264.2 131.4Q264.7 131.8 265.5 131.8ZM271.1 135.8 271.8 131.4H273.6L272.3 135.8ZM272.7 127.2Q272.2 127.2 271.9 126.8Q271.6 126.5 271.6 126Q271.6 125.6 271.9 125.3Q272.2 124.9 272.7 124.9Q273.2 124.9 273.5 125.3Q273.8 125.6 273.8 126Q273.8 126.5 273.5 126.8Q273.2 127.2 272.7 127.2ZM283.9 133.2Q282.7 133.2 281.8 132.6Q280.9 132.1 280.4 131.1Q279.9 130.1 279.9 128.8Q279.9 127.5 280.4 126.5Q280.9 125.5 281.8 125Q282.7 124.4 283.9 124.4Q285.1 124.4 285.9 125Q286.8 125.5 287.3 126.5Q287.8 127.5 287.8 128.8Q287.8 130.1 287.3 131.1Q286.8 132.1 285.9 132.6Q285.1 133.2 283.9 133.2ZM283.9 131.8Q284.6 131.8 285.1 131.4Q285.6 131 285.9 130.3Q286.1 129.6 286.1 128.8Q286.1 128 285.9 127.3Q285.6 126.7 285.1 126.2Q284.6 125.8 283.9 125.8Q283.1 125.8 282.6 126.2Q282.1 126.7 281.8 127.3Q281.6 128 281.6 128.8Q281.6 129.6 281.8 130.3Q282.1 131 282.6 131.4Q283.1 131.8 283.9 131.8ZM289.7 136.2V124.5H291.3V125.9H291.4Q291.6 125.7 291.8 125.3Q292.1 125 292.6 124.7Q293.1 124.4 293.9 124.4Q294.9 124.4 295.7 124.9Q296.5 125.5 296.9 126.4Q297.4 127.4 297.4 128.8Q297.4 130.2 296.9 131.1Q296.5 132.1 295.7 132.6Q294.9 133.2 293.9 133.2Q293.1 133.2 292.6 132.9Q292.1 132.6 291.8 132.3Q291.6 131.9 291.4 131.7H291.3V136.2ZM293.5 131.7Q294.2 131.7 294.7 131.4Q295.2 131 295.4 130.3Q295.7 129.6 295.7 128.8Q295.7 127.9 295.4 127.3Q295.2 126.6 294.7 126.2Q294.2 125.9 293.5 125.9Q292.8 125.9 292.3 126.2Q291.8 126.6 291.5 127.2Q291.3 127.9 291.3 128.8Q291.3 129.7 291.5 130.3Q291.8 131 292.3 131.4Q292.8 131.7 293.5 131.7ZM302.9 124.5V125.9H298.3V124.5ZM299.5 122.5H301.2V130.7Q301.2 131.2 301.4 131.5Q301.6 131.7 302.1 131.7Q302.2 131.7 302.4 131.7Q302.6 131.6 302.8 131.6L303.1 132.9Q302.8 133 302.5 133.1Q302.2 133.1 301.9 133.1Q300.8 133.1 300.1 132.5Q299.5 131.9 299.5 130.8ZM304.5 133V124.5H306.2V133ZM305.4 123.2Q304.9 123.2 304.6 123Q304.3 122.7 304.3 122.3Q304.3 121.8 304.6 121.6Q304.9 121.3 305.4 121.3Q305.8 121.3 306.1 121.6Q306.4 121.8 306.4 122.3Q306.4 122.7 306.1 123Q305.8 123.2 305.4 123.2ZM308.4 133V124.5H310L310 126.5H309.9Q310.1 125.8 310.5 125.3Q310.9 124.9 311.4 124.6Q311.9 124.4 312.4 124.4Q313.3 124.4 313.9 125Q314.5 125.5 314.7 126.6H314.5Q314.6 125.9 315 125.4Q315.5 124.9 316 124.6Q316.6 124.4 317.3 124.4Q318 124.4 318.6 124.7Q319.2 125 319.6 125.7Q319.9 126.3 319.9 127.3V133H318.3V127.5Q318.3 126.6 317.8 126.2Q317.3 125.9 316.7 125.9Q316.2 125.9 315.8 126.1Q315.4 126.3 315.2 126.7Q315 127.1 315 127.6V133H313.4V127.4Q313.4 126.7 312.9 126.3Q312.5 125.9 311.8 125.9Q311.4 125.9 311 126.1Q310.6 126.3 310.3 126.7Q310.1 127.1 310.1 127.7V133ZM322.2 133V124.5H323.9V133ZM323 123.2Q322.6 123.2 322.3 123Q322 122.7 322 122.3Q322 121.8 322.3 121.6Q322.6 121.3 323 121.3Q323.5 121.3 323.8 121.6Q324.1 121.8 324.1 122.3Q324.1 122.7 323.8 123Q323.5 123.2 323 123.2ZM325.9 133V131.9L330.5 126.1V126H326.1V124.5H332.5V125.8L328.2 131.5V131.5H332.7V133ZM337.1 133.2Q336.3 133.2 335.7 132.9Q335 132.6 334.6 132Q334.3 131.4 334.3 130.6Q334.3 129.9 334.5 129.4Q334.8 129 335.3 128.7Q335.8 128.4 336.3 128.3Q336.9 128.2 337.5 128.1Q338.3 128 338.7 127.9Q339.2 127.9 339.4 127.7Q339.7 127.6 339.7 127.3V127.3Q339.7 126.8 339.5 126.5Q339.3 126.1 338.9 126Q338.6 125.8 338 125.8Q337.5 125.8 337.1 126Q336.7 126.1 336.4 126.4Q336.2 126.7 336.1 126.9L334.5 126.5Q334.8 125.8 335.3 125.3Q335.9 124.9 336.6 124.6Q337.3 124.4 338 124.4Q338.5 124.4 339.1 124.6Q339.7 124.7 340.2 125Q340.7 125.3 341 125.9Q341.3 126.5 341.3 127.4V133H339.7V131.8H339.6Q339.5 132.2 339.1 132.5Q338.8 132.8 338.3 133Q337.8 133.2 337.1 133.2ZM337.5 131.9Q338.2 131.9 338.7 131.6Q339.1 131.3 339.4 130.9Q339.7 130.4 339.7 130V128.9Q339.6 129 339.3 129Q339.1 129.1 338.7 129.2Q338.4 129.2 338.1 129.3Q337.8 129.3 337.6 129.3Q337.1 129.4 336.8 129.5Q336.4 129.7 336.1 129.9Q335.9 130.2 335.9 130.6Q335.9 131 336.1 131.3Q336.3 131.6 336.7 131.7Q337 131.9 337.5 131.9ZM347.1 133.2Q345.9 133.2 345 132.6Q344.1 132.1 343.7 131.1Q343.2 130.1 343.2 128.8Q343.2 127.5 343.7 126.5Q344.1 125.5 345 125Q345.9 124.4 347.1 124.4Q347.8 124.4 348.4 124.6Q348.9 124.8 349.4 125.1Q349.9 125.4 350.2 125.9Q350.5 126.3 350.7 126.9L349.1 127.3Q349 127 348.8 126.7Q348.6 126.4 348.4 126.2Q348.2 126.1 347.8 125.9Q347.5 125.8 347.1 125.8Q346.4 125.8 345.9 126.2Q345.4 126.6 345.1 127.3Q344.9 128 344.9 128.8Q344.9 129.6 345.1 130.3Q345.4 131 345.9 131.4Q346.4 131.8 347.1 131.8Q347.5 131.8 347.8 131.7Q348.2 131.5 348.4 131.3Q348.7 131.1 348.9 130.9Q349 130.6 349.1 130.2L350.7 130.6Q350.5 131.2 350.2 131.7Q349.9 132.2 349.4 132.5Q348.9 132.8 348.4 133Q347.8 133.2 347.1 133.2ZM352.5 133V124.5H354.2V133ZM353.3 123.2Q352.9 123.2 352.6 123Q352.3 122.7 352.3 122.3Q352.3 121.8 352.6 121.6Q352.9 121.3 353.3 121.3Q353.8 121.3 354.1 121.6Q354.4 121.8 354.4 122.3Q354.4 122.7 354.1 123Q353.8 123.2 353.3 123.2ZM360 133.2Q358.8 133.2 357.9 132.6Q357 132.1 356.5 131.1Q356 130.1 356 128.8Q356 127.5 356.5 126.5Q357 125.5 357.9 125Q358.8 124.4 360 124.4Q361.2 124.4 362.1 125Q362.9 125.5 363.4 126.5Q363.9 127.5 363.9 128.8Q363.9 130.1 363.4 131.1Q362.9 132.1 362.1 132.6Q361.2 133.2 360 133.2ZM360 131.8Q360.7 131.8 361.2 131.4Q361.7 131 362 130.3Q362.2 129.6 362.2 128.8Q362.2 128 362 127.3Q361.7 126.7 361.2 126.2Q360.7 125.8 360 125.8Q359.2 125.8 358.7 126.2Q358.2 126.7 358 127.3Q357.7 128 357.7 128.8Q357.7 129.6 358 130.3Q358.2 131 358.7 131.4Q359.2 131.8 360 131.8ZM359.3 123.4 360.4 121.2H362.1L360.6 123.4ZM367.4 128V133H365.8V124.5H367.4L367.4 126.6H367.2Q367.6 125.5 368.3 125Q369 124.4 370 124.4Q370.8 124.4 371.5 124.8Q372.1 125.2 372.5 125.9Q372.9 126.6 372.9 127.6V133H371.2V127.8Q371.2 126.9 370.7 126.4Q370.2 125.9 369.4 125.9Q368.8 125.9 368.4 126.1Q368 126.4 367.7 126.8Q367.4 127.3 367.4 128ZM382.4 133.2Q381.3 133.2 380.5 132.6Q379.7 132.1 379.3 131.1Q378.8 130.2 378.8 128.8Q378.8 127.4 379.3 126.4Q379.8 125.5 380.6 124.9Q381.4 124.4 382.4 124.4Q383.2 124.4 383.6 124.7Q384.1 125 384.4 125.3Q384.7 125.7 384.8 125.9H384.9V121.7H386.6V133H385V131.7H384.8Q384.7 131.9 384.4 132.3Q384.1 132.6 383.6 132.9Q383.1 133.2 382.4 133.2ZM382.7 131.7Q383.5 131.7 383.9 131.4Q384.4 131 384.7 130.3Q384.9 129.7 384.9 128.8Q384.9 127.9 384.7 127.2Q384.4 126.6 383.9 126.2Q383.5 125.9 382.7 125.9Q382 125.9 381.5 126.2Q381 126.6 380.8 127.3Q380.5 127.9 380.5 128.8Q380.5 129.6 380.8 130.3Q381 131 381.5 131.4Q382 131.7 382.7 131.7ZM392.5 133.2Q391.2 133.2 390.3 132.6Q389.4 132.1 388.9 131.1Q388.4 130.1 388.4 128.8Q388.4 127.5 388.9 126.5Q389.4 125.5 390.3 125Q391.1 124.4 392.3 124.4Q393 124.4 393.7 124.7Q394.4 124.9 394.9 125.4Q395.5 125.9 395.8 126.7Q396.1 127.5 396.1 128.7V129.3H389.3V128H395.2L394.5 128.4Q394.5 127.7 394.2 127.1Q394 126.5 393.5 126.1Q393 125.8 392.3 125.8Q391.6 125.8 391.1 126.2Q390.6 126.5 390.3 127Q390.1 127.6 390.1 128.3V129.1Q390.1 130 390.4 130.6Q390.7 131.2 391.2 131.5Q391.8 131.8 392.5 131.8Q392.9 131.8 393.3 131.7Q393.7 131.5 394 131.3Q394.3 131 394.4 130.6L396 131Q395.8 131.6 395.3 132.1Q394.8 132.6 394.1 132.9Q393.4 133.2 392.5 133.2ZM399.6 121.7V133H397.9V121.7Z" fill="#c9c4ba"/><path d="M33.1 159.2V147.5H34.7V148.9H34.9Q35 148.7 35.3 148.3Q35.6 148 36 147.7Q36.5 147.4 37.3 147.4Q38.3 147.4 39.1 147.9Q39.9 148.5 40.4 149.4Q40.9 150.4 40.9 151.8Q40.9 153.2 40.4 154.1Q39.9 155.1 39.1 155.6Q38.4 156.2 37.3 156.2Q36.6 156.2 36.1 155.9Q35.6 155.6 35.3 155.3Q35 154.9 34.9 154.7H34.8V159.2ZM36.9 154.7Q37.7 154.7 38.2 154.4Q38.7 154 38.9 153.3Q39.2 152.6 39.2 151.8Q39.2 150.9 38.9 150.3Q38.7 149.6 38.2 149.2Q37.7 148.9 36.9 148.9Q36.2 148.9 35.7 149.2Q35.3 149.6 35 150.2Q34.8 150.9 34.8 151.8Q34.8 152.7 35 153.3Q35.3 154 35.8 154.4Q36.2 154.7 36.9 154.7ZM42.7 156V147.5H44.3V148.9H44.4Q44.6 148.2 45.2 147.8Q45.8 147.4 46.5 147.4Q46.7 147.4 46.9 147.4Q47.1 147.4 47.2 147.5V149Q47.2 149 46.9 149Q46.6 149 46.4 149Q45.8 149 45.3 149.2Q44.9 149.4 44.6 149.9Q44.4 150.3 44.4 150.9V156ZM52.3 156.2Q51.1 156.2 50.2 155.6Q49.3 155.1 48.8 154.1Q48.3 153.1 48.3 151.8Q48.3 150.5 48.8 149.5Q49.3 148.5 50.1 148Q51 147.4 52.2 147.4Q52.9 147.4 53.6 147.7Q54.3 147.9 54.8 148.4Q55.4 148.9 55.7 149.7Q56 150.5 56 151.7V152.3H49.2V151H55.1L54.3 151.4Q54.3 150.7 54.1 150.1Q53.9 149.5 53.4 149.1Q52.9 148.8 52.2 148.8Q51.5 148.8 51 149.2Q50.5 149.5 50.2 150Q50 150.6 50 151.3V152.1Q50 153 50.3 153.6Q50.6 154.2 51.1 154.5Q51.6 154.8 52.4 154.8Q52.8 154.8 53.2 154.7Q53.6 154.5 53.9 154.3Q54.1 154 54.3 153.6L55.8 154Q55.6 154.6 55.2 155.1Q54.7 155.6 54 155.9Q53.3 156.2 52.3 156.2ZM60.8 156.2Q59.9 156.2 59.2 155.9Q58.5 155.6 58 155.1Q57.6 154.6 57.4 153.9L59 153.5Q59.2 154.2 59.6 154.5Q60.1 154.8 60.9 154.8Q61.7 154.8 62.1 154.5Q62.6 154.2 62.6 153.7Q62.6 153.3 62.3 153Q62 152.7 61.4 152.6L60 152.3Q58.8 152 58.2 151.4Q57.7 150.9 57.7 150Q57.7 149.2 58.1 148.6Q58.5 148.1 59.2 147.7Q60 147.4 60.9 147.4Q61.9 147.4 62.5 147.7Q63.2 148 63.6 148.4Q64 148.9 64.1 149.5L62.7 149.9Q62.5 149.4 62.1 149.1Q61.7 148.7 61 148.7Q60.3 148.7 59.8 149.1Q59.3 149.4 59.3 149.9Q59.3 150.3 59.7 150.5Q60 150.8 60.7 151L62 151.3Q63.2 151.5 63.8 152.1Q64.3 152.7 64.3 153.5Q64.3 154.3 63.9 154.9Q63.4 155.5 62.7 155.8Q61.9 156.2 60.8 156.2ZM69 156.1Q68.2 156.1 67.5 155.7Q66.9 155.4 66.5 154.7Q66.1 154 66.1 152.9V147.5H67.8V152.7Q67.8 153.6 68.3 154.1Q68.8 154.7 69.6 154.7Q70.2 154.7 70.6 154.4Q71.1 154.2 71.3 153.7Q71.6 153.2 71.6 152.6V147.5H73.2V156H71.6L71.6 153.9H71.8Q71.4 155.1 70.7 155.6Q70 156.1 69 156.1ZM75.5 159.2V147.5H77.1V148.9H77.2Q77.4 148.7 77.6 148.3Q77.9 148 78.4 147.7Q78.9 147.4 79.7 147.4Q80.7 147.4 81.5 147.9Q82.3 148.5 82.7 149.4Q83.2 150.4 83.2 151.8Q83.2 153.2 82.8 154.1Q82.3 155.1 81.5 155.6Q80.7 156.2 79.7 156.2Q78.9 156.2 78.4 155.9Q77.9 155.6 77.7 155.3Q77.4 154.9 77.2 154.7H77.1V159.2ZM79.3 154.7Q80 154.7 80.5 154.4Q81 154 81.3 153.3Q81.5 152.6 81.5 151.8Q81.5 150.9 81.3 150.3Q81 149.6 80.5 149.2Q80 148.9 79.3 148.9Q78.6 148.9 78.1 149.2Q77.6 149.6 77.4 150.2Q77.1 150.9 77.1 151.8Q77.1 152.7 77.4 153.3Q77.6 154 78.1 154.4Q78.6 154.7 79.3 154.7ZM87.9 156.1Q87.1 156.1 86.4 155.7Q85.8 155.4 85.4 154.7Q85.1 154 85.1 152.9V147.5H86.7V152.7Q86.7 153.6 87.2 154.1Q87.7 154.7 88.5 154.7Q89.1 154.7 89.5 154.4Q90 154.2 90.2 153.7Q90.5 153.2 90.5 152.6V147.5H92.1V156H90.5L90.5 153.9H90.7Q90.3 155.1 89.6 155.6Q88.9 156.1 87.9 156.1ZM98 156.2Q96.8 156.2 95.9 155.6Q95 155.1 94.5 154.1Q94 153.1 94 151.8Q94 150.5 94.5 149.5Q94.9 148.5 95.8 148Q96.7 147.4 97.9 147.4Q98.6 147.4 99.3 147.7Q100 147.9 100.5 148.4Q101 148.9 101.3 149.7Q101.7 150.5 101.7 151.7V152.3H94.9V151H100.8L100 151.4Q100 150.7 99.8 150.1Q99.5 149.5 99.1 149.1Q98.6 148.8 97.9 148.8Q97.2 148.8 96.7 149.2Q96.2 149.5 95.9 150Q95.7 150.6 95.7 151.3V152.1Q95.7 153 96 153.6Q96.3 154.2 96.8 154.5Q97.3 154.8 98 154.8Q98.5 154.8 98.9 154.7Q99.3 154.5 99.5 154.3Q99.8 154 100 153.6L101.5 154Q101.3 154.6 100.8 155.1Q100.4 155.6 99.6 155.9Q98.9 156.2 98 156.2ZM106.5 156.2Q105.6 156.2 104.9 155.9Q104.2 155.6 103.7 155.1Q103.3 154.6 103.1 153.9L104.7 153.5Q104.8 154.2 105.3 154.5Q105.8 154.8 106.5 154.8Q107.3 154.8 107.8 154.5Q108.3 154.2 108.3 153.7Q108.3 153.3 108 153Q107.7 152.7 107.1 152.6L105.7 152.3Q104.5 152 103.9 151.4Q103.4 150.9 103.4 150Q103.4 149.2 103.8 148.6Q104.2 148.1 104.9 147.7Q105.7 147.4 106.6 147.4Q107.5 147.4 108.2 147.7Q108.8 148 109.2 148.4Q109.7 148.9 109.8 149.5L108.3 149.9Q108.2 149.4 107.8 149.1Q107.4 148.7 106.6 148.7Q105.9 148.7 105.5 149.1Q105 149.4 105 149.9Q105 150.3 105.3 150.5Q105.6 150.8 106.3 151L107.7 151.3Q108.9 151.5 109.4 152.1Q110 152.7 110 153.5Q110 154.3 109.6 154.9Q109.1 155.5 108.3 155.8Q107.6 156.2 106.5 156.2ZM115.5 147.5V148.9H110.9V147.5ZM112.1 145.5H113.8V153.7Q113.8 154.2 114 154.5Q114.2 154.7 114.7 154.7Q114.8 154.7 115 154.7Q115.2 154.6 115.4 154.6L115.7 155.9Q115.4 156 115.1 156.1Q114.8 156.1 114.5 156.1Q113.4 156.1 112.7 155.5Q112.1 154.9 112.1 153.8ZM120.7 156.2Q119.5 156.2 118.6 155.6Q117.7 155.1 117.2 154.1Q116.7 153.1 116.7 151.8Q116.7 150.5 117.2 149.5Q117.7 148.5 118.6 148Q119.5 147.4 120.7 147.4Q121.9 147.4 122.8 148Q123.6 148.5 124.1 149.5Q124.6 150.5 124.6 151.8Q124.6 153.1 124.1 154.1Q123.6 155.1 122.8 155.6Q121.9 156.2 120.7 156.2ZM120.7 154.8Q121.4 154.8 121.9 154.4Q122.4 154 122.7 153.3Q122.9 152.6 122.9 151.8Q122.9 151 122.7 150.3Q122.4 149.7 121.9 149.2Q121.4 148.8 120.7 148.8Q119.9 148.8 119.4 149.2Q118.9 149.7 118.7 150.3Q118.4 151 118.4 151.8Q118.4 152.6 118.7 153.3Q118.9 154 119.4 154.4Q119.9 154.8 120.7 154.8ZM134.2 156.2Q133 156.2 132.1 155.6Q131.2 155.1 130.7 154.1Q130.2 153.1 130.2 151.8Q130.2 150.5 130.7 149.5Q131.2 148.5 132.1 148Q133 147.4 134.2 147.4Q134.8 147.4 135.4 147.6Q136 147.8 136.4 148.1Q136.9 148.4 137.2 148.9Q137.5 149.3 137.7 149.9L136.1 150.3Q136 150 135.9 149.7Q135.7 149.4 135.4 149.2Q135.2 149.1 134.9 148.9Q134.6 148.8 134.2 148.8Q133.4 148.8 132.9 149.2Q132.4 149.6 132.2 150.3Q131.9 151 131.9 151.8Q131.9 152.6 132.2 153.3Q132.4 154 132.9 154.4Q133.4 154.8 134.2 154.8Q134.6 154.8 134.9 154.7Q135.2 154.5 135.5 154.3Q135.7 154.1 135.9 153.9Q136.1 153.6 136.2 153.2L137.7 153.6Q137.6 154.2 137.2 154.7Q136.9 155.2 136.5 155.5Q136 155.8 135.4 156Q134.8 156.2 134.2 156.2ZM143.1 156.2Q141.9 156.2 141 155.6Q140.1 155.1 139.6 154.1Q139.2 153.1 139.2 151.8Q139.2 150.5 139.6 149.5Q140.1 148.5 141 148Q141.9 147.4 143.1 147.4Q144.3 147.4 145.2 148Q146.1 148.5 146.6 149.5Q147.1 150.5 147.1 151.8Q147.1 153.1 146.6 154.1Q146.1 155.1 145.2 155.6Q144.3 156.2 143.1 156.2ZM143.1 154.8Q143.9 154.8 144.4 154.4Q144.9 154 145.1 153.3Q145.4 152.6 145.4 151.8Q145.4 151 145.1 150.3Q144.9 149.7 144.4 149.2Q143.9 148.8 143.1 148.8Q142.3 148.8 141.8 149.2Q141.3 149.7 141.1 150.3Q140.9 151 140.9 151.8Q140.9 152.6 141.1 153.3Q141.3 154 141.8 154.4Q142.3 154.8 143.1 154.8ZM150.6 151V156H148.9V147.5H150.5L150.5 149.6H150.3Q150.7 148.5 151.4 148Q152.1 147.4 153.1 147.4Q154 147.4 154.6 147.8Q155.3 148.2 155.6 148.9Q156 149.6 156 150.6V156H154.3V150.8Q154.3 149.9 153.8 149.4Q153.4 148.9 152.5 148.9Q152 148.9 151.5 149.1Q151.1 149.4 150.8 149.8Q150.6 150.3 150.6 151ZM166.4 144.7V156H164.7V146.3H164.6L162 148.2V146.5L164.4 144.7ZM172.3 156.2Q171.2 156.2 170.4 155.7Q169.6 155.3 169.1 154.6Q168.6 153.9 168.6 153H170.2Q170.3 153.5 170.6 153.9Q170.8 154.3 171.3 154.5Q171.7 154.7 172.3 154.7Q172.9 154.7 173.4 154.4Q173.9 154.1 174.2 153.6Q174.5 153.1 174.5 152.4Q174.5 151.7 174.2 151.2Q173.9 150.6 173.4 150.3Q172.9 150 172.2 150Q171.7 150 171.2 150.2Q170.7 150.4 170.3 150.7L168.8 150.4L169.4 144.7H175.6V146.2H170.8L170.5 149.3H170.5Q170.9 149 171.4 148.8Q172 148.6 172.6 148.6Q173.4 148.6 174 148.9Q174.7 149.1 175.2 149.7Q175.6 150.2 175.9 150.8Q176.2 151.5 176.2 152.3Q176.2 153.4 175.7 154.3Q175.2 155.2 174.3 155.7Q173.4 156.2 172.3 156.2ZM186.5 147.5V148.9H181.3V147.5ZM182.9 156V146.6Q182.9 145.8 183.3 145.3Q183.6 144.7 184.2 144.5Q184.8 144.2 185.4 144.2Q185.9 144.2 186.3 144.3Q186.7 144.4 186.8 144.4L186.4 145.8Q186.3 145.7 186.1 145.7Q186 145.6 185.7 145.6Q185.1 145.6 184.8 145.9Q184.6 146.2 184.6 146.8V156ZM191 156.1Q190.2 156.1 189.5 155.7Q188.9 155.4 188.5 154.7Q188.2 154 188.2 152.9V147.5H189.8V152.7Q189.8 153.6 190.3 154.1Q190.8 154.7 191.6 154.7Q192.2 154.7 192.6 154.4Q193.1 154.2 193.3 153.7Q193.6 153.2 193.6 152.6V147.5H195.2V156H193.7L193.6 153.9H193.8Q193.4 155.1 192.7 155.6Q192 156.1 191 156.1ZM201.1 156.2Q199.9 156.2 199 155.6Q198.1 155.1 197.6 154.1Q197.1 153.1 197.1 151.8Q197.1 150.5 197.6 149.5Q198.1 148.5 198.9 148Q199.8 147.4 201 147.4Q201.7 147.4 202.4 147.7Q203.1 147.9 203.6 148.4Q204.1 148.9 204.5 149.7Q204.8 150.5 204.8 151.7V152.3H198V151H203.9L203.1 151.4Q203.1 150.7 202.9 150.1Q202.6 149.5 202.2 149.1Q201.7 148.8 201 148.8Q200.3 148.8 199.8 149.2Q199.3 149.5 199 150Q198.8 150.6 198.8 151.3V152.1Q198.8 153 199.1 153.6Q199.4 154.2 199.9 154.5Q200.4 154.8 201.1 154.8Q201.6 154.8 202 154.7Q202.4 154.5 202.6 154.3Q202.9 154 203.1 153.6L204.6 154Q204.4 154.6 203.9 155.1Q203.5 155.6 202.8 155.9Q202 156.2 201.1 156.2ZM208.3 151V156H206.6V147.5H208.2L208.2 149.6H208Q208.4 148.5 209.1 148Q209.8 147.4 210.8 147.4Q211.7 147.4 212.3 147.8Q212.9 148.2 213.3 148.9Q213.7 149.6 213.7 150.6V156H212V150.8Q212 149.9 211.5 149.4Q211.1 148.9 210.2 148.9Q209.7 148.9 209.2 149.1Q208.8 149.4 208.5 149.8Q208.3 150.3 208.3 151ZM219.5 147.5V148.9H214.9V147.5ZM216.2 145.5H217.8V153.7Q217.8 154.2 218.1 154.5Q218.3 154.7 218.8 154.7Q218.9 154.7 219.1 154.7Q219.3 154.6 219.5 154.6L219.8 155.9Q219.5 156 219.2 156.1Q218.9 156.1 218.6 156.1Q217.4 156.1 216.8 155.5Q216.2 154.9 216.2 153.8ZM224.8 156.2Q223.6 156.2 222.7 155.6Q221.8 155.1 221.3 154.1Q220.8 153.1 220.8 151.8Q220.8 150.5 221.3 149.5Q221.8 148.5 222.6 148Q223.5 147.4 224.7 147.4Q225.4 147.4 226.1 147.7Q226.8 147.9 227.3 148.4Q227.8 148.9 228.2 149.7Q228.5 150.5 228.5 151.7V152.3H221.7V151H227.6L226.8 151.4Q226.8 150.7 226.6 150.1Q226.4 149.5 225.9 149.1Q225.4 148.8 224.7 148.8Q224 148.8 223.5 149.2Q223 149.5 222.7 150Q222.5 150.6 222.5 151.3V152.1Q222.5 153 222.8 153.6Q223.1 154.2 223.6 154.5Q224.1 154.8 224.8 154.8Q225.3 154.8 225.7 154.7Q226.1 154.5 226.4 154.3Q226.6 154 226.8 153.6L228.3 154Q228.1 154.6 227.7 155.1Q227.2 155.6 226.5 155.9Q225.7 156.2 224.8 156.2ZM233.3 156.2Q232.4 156.2 231.7 155.9Q231 155.6 230.5 155.1Q230.1 154.6 229.9 153.9L231.5 153.5Q231.7 154.2 232.1 154.5Q232.6 154.8 233.3 154.8Q234.1 154.8 234.6 154.5Q235.1 154.2 235.1 153.7Q235.1 153.3 234.8 153Q234.5 152.7 233.9 152.6L232.5 152.3Q231.3 152 230.7 151.4Q230.2 150.9 230.2 150Q230.2 149.2 230.6 148.6Q231 148.1 231.7 147.7Q232.5 147.4 233.4 147.4Q234.3 147.4 235 147.7Q235.6 148 236.1 148.4Q236.5 148.9 236.6 149.5L235.1 149.9Q235 149.4 234.6 149.1Q234.2 148.7 233.4 148.7Q232.8 148.7 232.3 149.1Q231.8 149.4 231.8 149.9Q231.8 150.3 232.1 150.5Q232.4 150.8 233.1 151L234.5 151.3Q235.7 151.5 236.2 152.1Q236.8 152.7 236.8 153.5Q236.8 154.3 236.4 154.9Q235.9 155.5 235.1 155.8Q234.4 156.2 233.3 156.2ZM246.3 156.2Q245.1 156.2 244.2 155.6Q243.4 155.1 242.9 154.1Q242.4 153.1 242.4 151.8Q242.4 150.5 242.9 149.5Q243.4 148.5 244.2 148Q245.1 147.4 246.3 147.4Q247.5 147.4 248.4 148Q249.3 148.5 249.8 149.5Q250.3 150.5 250.3 151.8Q250.3 153.1 249.8 154.1Q249.3 155.1 248.4 155.6Q247.5 156.2 246.3 156.2ZM246.3 154.8Q247.1 154.8 247.6 154.4Q248.1 154 248.4 153.3Q248.6 152.6 248.6 151.8Q248.6 151 248.4 150.3Q248.1 149.7 247.6 149.2Q247.1 148.8 246.3 148.8Q245.6 148.8 245.1 149.2Q244.6 149.7 244.3 150.3Q244.1 151 244.1 151.8Q244.1 152.6 244.3 153.3Q244.6 154 245.1 154.4Q245.6 154.8 246.3 154.8ZM256.3 147.5V148.9H251.2V147.5ZM252.8 156V146.6Q252.8 145.8 253.1 145.3Q253.5 144.7 254 144.5Q254.6 144.2 255.3 144.2Q255.8 144.2 256.2 144.3Q256.5 144.4 256.7 144.4L256.3 145.8Q256.2 145.7 256 145.7Q255.8 145.6 255.6 145.6Q255 145.6 254.7 145.9Q254.4 146.2 254.4 146.8V156ZM258 156V147.5H259.7V156ZM258.9 146.2Q258.4 146.2 258.1 146Q257.8 145.7 257.8 145.3Q257.8 144.8 258.1 144.6Q258.4 144.3 258.9 144.3Q259.3 144.3 259.6 144.6Q259.9 144.8 259.9 145.3Q259.9 145.7 259.6 146Q259.3 146.2 258.9 146.2ZM265.5 156.2Q264.3 156.2 263.4 155.6Q262.5 155.1 262 154.1Q261.5 153.1 261.5 151.8Q261.5 150.5 262 149.5Q262.5 148.5 263.4 148Q264.3 147.4 265.5 147.4Q266.1 147.4 266.7 147.6Q267.3 147.8 267.7 148.1Q268.2 148.4 268.5 148.9Q268.9 149.3 269 149.9L267.4 150.3Q267.4 150 267.2 149.7Q267 149.4 266.8 149.2Q266.5 149.1 266.2 148.9Q265.9 148.8 265.5 148.8Q264.7 148.8 264.2 149.2Q263.7 149.6 263.5 150.3Q263.2 151 263.2 151.8Q263.2 152.6 263.5 153.3Q263.7 154 264.2 154.4Q264.7 154.8 265.5 154.8Q265.9 154.8 266.2 154.7Q266.5 154.5 266.8 154.3Q267 154.1 267.2 153.9Q267.4 153.6 267.5 153.2L269 153.6Q268.9 154.2 268.6 154.7Q268.2 155.2 267.8 155.5Q267.3 155.8 266.7 156Q266.1 156.2 265.5 156.2ZM270.9 156V147.5H272.5V156ZM271.7 146.2Q271.3 146.2 271 146Q270.7 145.7 270.7 145.3Q270.7 144.8 271 144.6Q271.3 144.3 271.7 144.3Q272.1 144.3 272.4 144.6Q272.8 144.8 272.8 145.3Q272.8 145.7 272.4 146Q272.1 146.2 271.7 146.2ZM277.1 156.2Q276.3 156.2 275.7 155.9Q275 155.6 274.7 155Q274.3 154.4 274.3 153.6Q274.3 152.9 274.6 152.4Q274.8 152 275.3 151.7Q275.8 151.4 276.4 151.3Q276.9 151.2 277.5 151.1Q278.3 151 278.8 150.9Q279.2 150.9 279.4 150.7Q279.7 150.6 279.7 150.3V150.3Q279.7 149.8 279.5 149.5Q279.3 149.1 278.9 149Q278.6 148.8 278 148.8Q277.5 148.8 277.1 149Q276.7 149.1 276.5 149.4Q276.2 149.7 276.1 149.9L274.5 149.5Q274.8 148.8 275.3 148.3Q275.9 147.9 276.6 147.6Q277.3 147.4 278 147.4Q278.5 147.4 279.1 147.6Q279.7 147.7 280.2 148Q280.7 148.3 281 148.9Q281.3 149.5 281.3 150.4V156H279.7V154.8H279.6Q279.5 155.2 279.1 155.5Q278.8 155.8 278.3 156Q277.8 156.2 277.1 156.2ZM277.5 154.9Q278.2 154.9 278.7 154.6Q279.2 154.3 279.4 153.9Q279.7 153.4 279.7 153V151.9Q279.6 152 279.3 152Q279.1 152.1 278.8 152.2Q278.4 152.2 278.1 152.3Q277.8 152.3 277.6 152.3Q277.2 152.4 276.8 152.5Q276.4 152.7 276.1 152.9Q275.9 153.2 275.9 153.6Q275.9 154 276.1 154.3Q276.3 154.6 276.7 154.7Q277 154.9 277.5 154.9ZM285.2 144.7V156H283.6V144.7ZM291.1 156.2Q289.9 156.2 289 155.6Q288.1 155.1 287.6 154.1Q287.1 153.1 287.1 151.8Q287.1 150.5 287.6 149.5Q288 148.5 288.9 148Q289.8 147.4 291 147.4Q291.7 147.4 292.4 147.7Q293.1 147.9 293.6 148.4Q294.1 148.9 294.4 149.7Q294.8 150.5 294.8 151.7V152.3H288V151H293.9L293.1 151.4Q293.1 150.7 292.9 150.1Q292.6 149.5 292.2 149.1Q291.7 148.8 291 148.8Q290.3 148.8 289.8 149.2Q289.3 149.5 289 150Q288.8 150.6 288.8 151.3V152.1Q288.8 153 289.1 153.6Q289.4 154.2 289.9 154.5Q290.4 154.8 291.1 154.8Q291.6 154.8 292 154.7Q292.4 154.5 292.6 154.3Q292.9 154 293.1 153.6L294.6 154Q294.4 154.6 293.9 155.1Q293.5 155.6 292.7 155.9Q292 156.2 291.1 156.2ZM299.6 156.2Q298.7 156.2 298 155.9Q297.3 155.6 296.8 155.1Q296.4 154.6 296.2 153.9L297.8 153.5Q297.9 154.2 298.4 154.5Q298.9 154.8 299.6 154.8Q300.4 154.8 300.9 154.5Q301.4 154.2 301.4 153.7Q301.4 153.3 301.1 153Q300.8 152.7 300.2 152.6L298.8 152.3Q297.6 152 297 151.4Q296.4 150.9 296.4 150Q296.4 149.2 296.9 148.6Q297.3 148.1 298 147.7Q298.8 147.4 299.7 147.4Q300.6 147.4 301.3 147.7Q301.9 148 302.3 148.4Q302.7 148.9 302.9 149.5L301.4 149.9Q301.3 149.4 300.9 149.1Q300.5 148.7 299.7 148.7Q299 148.7 298.6 149.1Q298.1 149.4 298.1 149.9Q298.1 150.3 298.4 150.5Q298.7 150.8 299.4 151L300.8 151.3Q302 151.5 302.5 152.1Q303.1 152.7 303.1 153.5Q303.1 154.3 302.7 154.9Q302.2 155.5 301.4 155.8Q300.7 156.2 299.6 156.2ZM306.2 156.1Q305.7 156.1 305.4 155.8Q305 155.5 305 155Q305 154.5 305.4 154.2Q305.7 153.9 306.2 153.9Q306.6 153.9 307 154.2Q307.3 154.5 307.3 155Q307.3 155.5 307 155.8Q306.6 156.1 306.2 156.1Z" fill="#c9c4ba"/><polygon points="44,238 322,238 310,286 32,286" fill="#ff2e3a"/><path d="M59.4 278.4Q54.8 278.4 52.8 275.7Q50.9 273.1 50.9 268.3V266.1Q50.9 263.6 51.4 262.1Q52 260.5 53.6 259.7Q52.1 259.1 51.5 257.7Q50.9 256.2 50.9 254.1V253.2Q50.9 248.9 53.1 246.9Q55.2 244.9 59.4 244.9Q63.7 244.9 65.8 247Q67.9 249 67.9 253.5Q67.9 255.8 67.3 257.4Q66.8 259 65.1 259.7Q66.9 260.7 67.4 262.1Q67.9 263.6 67.9 266.1V268.3Q67.9 273.1 66 275.7Q64 278.4 59.4 278.4ZM59.4 257Q61.1 257 61.1 253.8Q61.1 252.8 60.8 251.9Q60.4 250.9 59.4 250.9Q58.4 250.9 58 251.9Q57.7 252.8 57.7 253.8Q57.7 257 59.4 257ZM59.4 271.9Q61.2 271.9 61.2 269V266Q61.2 264.5 60.8 263.7Q60.4 262.9 59.4 262.9Q58.4 262.9 58 263.7Q57.6 264.5 57.6 266V269Q57.6 271.9 59.4 271.9ZM70.8 278V272.5H77.4V278ZM84 278V252.8Q83.3 253.6 82.1 254.1Q81 254.6 79.9 254.6V249.4Q80.9 249.3 82 248.8Q83.2 248.3 84.1 247.4Q85.1 246.5 85.6 245.3H90.9V278ZM94.5 278V245.3H104.4L107.2 265.3L109.9 245.3H119.9V278H114V254.5L110.2 278H104.3L100.4 254.5V278ZM133.7 278V245.3H143.7Q146.3 245.3 147.5 246.5Q148.8 247.6 149.2 249.7Q149.7 251.7 149.7 254.5Q149.7 257.2 149 258.8Q148.3 260.4 146.5 261Q148 261.3 148.6 262.5Q149.2 263.7 149.2 265.6V278H142.8V265.2Q142.8 263.8 142.2 263.4Q141.6 263.1 140.3 263.1V278ZM140.4 257.4H141.9Q143.3 257.4 143.3 254.5Q143.3 252.6 143 252Q142.7 251.4 141.9 251.4H140.4ZM152.8 278V245.3H165.9V251.7H159.5V258H165.6V264.2H159.5V271.6H166.3V278ZM176.2 278.3Q169.2 278.3 169.2 268.3V254.2Q169.2 245 177.2 245Q180.5 245 182.3 246.4Q184.1 247.7 184.7 250.2Q185.4 252.8 185.4 256.4H179V253.5Q179 252.5 178.7 251.8Q178.4 251.1 177.5 251.1Q176.4 251.1 176 251.8Q175.7 252.6 175.7 253.5V269.3Q175.7 270.6 176 271.5Q176.4 272.3 177.4 272.3Q178.4 272.3 178.7 271.5Q179.1 270.6 179.1 269.3V264.6H177.3V259H185.3V278H182.7L181.6 275.3Q179.9 278.3 176.2 278.3ZM188.6 278V245.3H194.9V278ZM206.3 278.3Q201.8 278.3 199.8 276.1Q197.8 273.8 197.8 269V265.8H204.3V269.9Q204.3 271 204.6 271.6Q205 272.3 205.8 272.3Q206.7 272.3 207.1 271.8Q207.4 271.2 207.4 270.1Q207.4 268.6 207.1 267.5Q206.8 266.5 206.1 265.6Q205.4 264.7 204.1 263.5L201.1 260.7Q197.8 257.6 197.8 253.6Q197.8 249.4 199.8 247.2Q201.7 245 205.4 245Q209.9 245 211.8 247.4Q213.7 249.8 213.7 254.7H207V252.5Q207 251.8 206.6 251.4Q206.2 251.1 205.6 251.1Q204.8 251.1 204.5 251.5Q204.1 251.9 204.1 252.6Q204.1 253.3 204.5 254.1Q204.8 254.9 205.9 255.9L209.7 259.6Q210.8 260.6 211.8 261.8Q212.7 263 213.3 264.6Q213.9 266.2 213.9 268.5Q213.9 273.1 212.2 275.7Q210.5 278.3 206.3 278.3ZM219.8 278V251.6H216V245.3H230.3V251.6H226.4V278ZM233.1 278V245.3H243.1Q245.6 245.3 246.9 246.5Q248.2 247.6 248.6 249.7Q249 251.7 249 254.5Q249 257.2 248.4 258.8Q247.7 260.4 245.8 261Q247.3 261.3 248 262.5Q248.6 263.7 248.6 265.6V278H242.1V265.2Q242.1 263.8 241.6 263.4Q241 263.1 239.7 263.1V278ZM239.7 257.4H241.3Q242.7 257.4 242.7 254.5Q242.7 252.6 242.4 252Q242.1 251.4 241.2 251.4H239.7ZM260 278.3Q256.1 278.3 254 275.9Q251.9 273.6 251.9 269.1V253.6Q251.9 249.4 254 247.2Q256 245 260 245Q263.9 245 266 247.2Q268 249.4 268 253.6V269.1Q268 273.6 266 275.9Q263.9 278.3 260 278.3ZM260 272.3Q261.5 272.3 261.5 269.4V253.5Q261.5 251.1 260.1 251.1Q258.4 251.1 258.4 253.5V269.4Q258.4 271 258.8 271.6Q259.2 272.3 260 272.3ZM279.4 278.3Q275 278.3 273 276.1Q271 273.8 271 269V265.8H277.5V269.9Q277.5 271 277.8 271.6Q278.1 272.3 279 272.3Q279.9 272.3 280.2 271.8Q280.6 271.2 280.6 270.1Q280.6 268.6 280.3 267.5Q280 266.5 279.2 265.6Q278.5 264.7 277.2 263.5L274.3 260.7Q271 257.6 271 253.6Q271 249.4 272.9 247.2Q274.9 245 278.5 245Q283 245 284.9 247.4Q286.8 249.8 286.8 254.7H280.2V252.5Q280.2 251.8 279.8 251.4Q279.4 251.1 278.8 251.1Q278 251.1 277.6 251.5Q277.3 251.9 277.3 252.6Q277.3 253.3 277.6 254.1Q278 254.9 279.1 255.9L282.9 259.6Q284 260.6 284.9 261.8Q285.9 263 286.5 264.6Q287 266.2 287 268.5Q287 273.1 285.3 275.7Q283.6 278.3 279.4 278.3Z" fill="#0a0a0b"/><path d="M330.8 265.2Q330.8 264.3 331.1 263.7Q331.3 263 331.8 262.7Q332.3 262.4 333 262.4Q333.4 262.4 333.9 262.5Q334.3 262.7 334.8 263.2Q335.1 263.5 335.3 263.6Q335.5 263.7 335.8 263.7Q336.1 263.7 336.4 263.5Q336.6 263.2 336.6 262.6H338.2Q338.2 263.5 337.9 264.2Q337.7 264.8 337.2 265.1Q336.7 265.5 336 265.5Q335.5 265.5 335.1 265.3Q334.7 265.1 334.2 264.6Q333.8 264.3 333.7 264.2Q333.5 264.1 333.2 264.1Q332.9 264.1 332.6 264.3Q332.4 264.6 332.4 265.2ZM344.8 268.2Q343.8 268.2 343 267.8Q342.2 267.4 341.8 266.7Q341.3 266 341.2 265.2H343.3Q343.4 265.7 343.8 266Q344.2 266.4 344.8 266.4Q345.5 266.4 345.9 266Q346.4 265.6 346.6 264.8Q346.9 264.1 346.9 263.1H346.8Q346.6 263.5 346.2 263.8Q345.8 264.2 345.3 264.3Q344.8 264.5 344.2 264.5Q343.3 264.5 342.6 264.1Q341.9 263.7 341.5 262.9Q341.1 262.2 341.1 261.2Q341.1 260.2 341.6 259.4Q342.1 258.6 342.9 258.1Q343.8 257.7 344.9 257.7Q345.7 257.7 346.4 257.9Q347.1 258.2 347.7 258.8Q348.2 259.3 348.6 260.3Q348.9 261.3 348.9 262.7Q348.9 263.9 348.6 265Q348.3 266 347.8 266.7Q347.3 267.4 346.5 267.8Q345.7 268.2 344.8 268.2ZM344.9 263Q345.3 263 345.6 262.8Q345.9 262.7 346.1 262.4Q346.4 262.2 346.5 261.9Q346.7 261.5 346.7 261.1Q346.7 260.7 346.4 260.2Q346.2 259.8 345.8 259.6Q345.4 259.3 344.9 259.3Q344.4 259.3 344 259.6Q343.6 259.8 343.4 260.2Q343.1 260.6 343.1 261.2Q343.1 261.7 343.4 262.1Q343.6 262.5 344 262.7Q344.4 263 344.9 263ZM355 268.1Q354 268.1 353.2 267.8Q352.4 267.4 351.9 266.7Q351.4 266 351.4 265.1H353.4Q353.4 265.5 353.7 265.8Q353.9 266.1 354.2 266.3Q354.6 266.5 355 266.5Q355.6 266.5 355.9 266.3Q356.3 266 356.6 265.6Q356.8 265.2 356.8 264.7Q356.8 264.1 356.6 263.7Q356.3 263.3 355.9 263.1Q355.5 262.8 355 262.8Q354.5 262.8 354.1 263Q353.7 263.2 353.5 263.5L351.6 263.2L352.1 257.8H358.3V259.5H353.8L353.6 262.1H353.6Q353.9 261.7 354.4 261.5Q355 261.3 355.6 261.3Q356.3 261.3 356.9 261.5Q357.5 261.8 357.9 262.2Q358.3 262.7 358.6 263.3Q358.8 263.9 358.8 264.6Q358.8 265.6 358.3 266.4Q357.9 267.2 357 267.7Q356.2 268.1 355 268.1ZM361.9 268 366.1 259.6V259.5H361.2V257.8H368.3V259.6L364 268ZM378.4 268 374.8 257.8H377.2L378.8 262.7Q379.1 263.7 379.4 264.8Q379.7 265.9 380 267.2H379.6Q379.9 265.9 380.2 264.8Q380.5 263.7 380.8 262.7L382.3 257.8H384.6L381.1 268ZM389.2 257.8V268H387.1V257.8ZM396 268.1Q394.7 268.1 393.8 267.8Q392.9 267.4 392.4 266.7Q391.9 265.9 391.9 264.8H393.9Q393.9 265.4 394.2 265.7Q394.5 266 394.9 266.2Q395.4 266.4 395.9 266.4Q396.5 266.4 396.9 266.2Q397.3 266.1 397.6 265.8Q397.8 265.5 397.8 265.1Q397.8 264.7 397.6 264.5Q397.4 264.3 397 264.1Q396.6 263.9 396 263.8L394.9 263.5Q393.6 263.2 392.9 262.5Q392.1 261.9 392.1 260.7Q392.1 259.8 392.6 259.1Q393.1 258.4 394 258.1Q394.9 257.7 396 257.7Q397.1 257.7 398 258.1Q398.8 258.5 399.3 259.1Q399.7 259.8 399.7 260.7H397.7Q397.7 260.1 397.2 259.8Q396.7 259.4 396 259.4Q395.4 259.4 395.1 259.6Q394.7 259.7 394.5 260Q394.3 260.3 394.3 260.6Q394.3 261 394.5 261.2Q394.7 261.5 395.1 261.6Q395.5 261.8 395.9 261.9L396.8 262.1Q397.5 262.3 398 262.5Q398.6 262.8 399 263.1Q399.4 263.5 399.7 264Q399.9 264.5 399.9 265.1Q399.9 266 399.4 266.7Q398.9 267.4 398.1 267.8Q397.2 268.1 396 268.1ZM404.7 257.8V268H402.6V257.8ZM407.3 259.5V257.8H415.6V259.5H412.5V268H410.4V259.5ZM417.7 268 421.2 257.8H423.9L427.5 268H425.1L423.5 263.1Q423.2 262.1 422.9 261Q422.6 259.9 422.3 258.5H422.7Q422.4 259.9 422.1 261Q421.8 262.2 421.5 263.1L420 268ZM419.8 265.6V264H425.3V265.6ZM429.9 268V257.8H432.2L435.5 263Q435.7 263.4 436 263.8Q436.2 264.3 436.5 264.9Q436.7 265.4 437 266.1H436.8Q436.7 265.6 436.7 264.9Q436.7 264.3 436.6 263.7Q436.6 263.1 436.6 262.7V257.8H438.7V268H436.4L433.5 263.3Q433.2 262.8 432.9 262.3Q432.6 261.8 432.3 261.2Q432 260.6 431.6 259.8H431.9Q431.9 260.5 432 261.2Q432 261.9 432 262.4Q432 263 432 263.3V268ZM441.4 259.5V257.8H449.7V259.5H446.6V268H444.5V259.5ZM452.3 268V257.8H459.1V259.5H454.4V262H458.8V263.7H454.4V266.3H459.2V268ZM465.8 268.1Q464.5 268.1 463.6 267.8Q462.7 267.4 462.2 266.7Q461.7 265.9 461.7 264.8H463.7Q463.8 265.4 464 265.7Q464.3 266 464.7 266.2Q465.2 266.4 465.7 266.4Q466.3 266.4 466.7 266.2Q467.1 266.1 467.4 265.8Q467.6 265.5 467.6 265.1Q467.6 264.7 467.4 264.5Q467.2 264.3 466.8 264.1Q466.4 263.9 465.8 263.8L464.7 263.5Q463.4 263.2 462.7 262.5Q462 261.9 462 260.7Q462 259.8 462.5 259.1Q463 258.4 463.8 258.1Q464.7 257.7 465.8 257.7Q466.9 257.7 467.8 258.1Q468.6 258.5 469.1 259.1Q469.5 259.8 469.6 260.7H467.5Q467.5 260.1 467 259.8Q466.6 259.4 465.8 259.4Q465.2 259.4 464.9 259.6Q464.5 259.7 464.3 260Q464.1 260.3 464.1 260.6Q464.1 261 464.3 261.2Q464.6 261.5 464.9 261.6Q465.3 261.8 465.7 261.9L466.7 262.1Q467.3 262.3 467.8 262.5Q468.4 262.8 468.8 263.1Q469.2 263.5 469.5 264Q469.7 264.5 469.7 265.1Q469.7 266 469.2 266.7Q468.8 267.4 467.9 267.8Q467 268.1 465.8 268.1ZM476.9 268V257.8H480.1L481.8 262.5Q481.9 262.8 482 263.3Q482.1 263.9 482.3 264.5Q482.4 265.1 482.5 265.6Q482.6 266.2 482.7 266.6H482.3Q482.4 266.2 482.5 265.6Q482.6 265.1 482.8 264.5Q482.9 263.9 483 263.3Q483.2 262.8 483.3 262.5L484.9 257.8H488.1V268H486V263.2Q486 262.9 486 262.4Q486 261.9 486.1 261.3Q486.1 260.7 486.1 260.1Q486.1 259.5 486.1 259H486.2Q486.1 259.6 486 260.2Q485.8 260.8 485.6 261.4Q485.5 261.9 485.3 262.4Q485.2 262.9 485.1 263.2L483.4 268H481.6L479.9 263.2Q479.8 262.9 479.7 262.4Q479.5 262 479.4 261.4Q479.2 260.8 479 260.2Q478.9 259.6 478.7 259H478.9Q478.9 259.5 478.9 260.1Q478.9 260.7 478.9 261.3Q479 261.8 479 262.4Q479 262.9 479 263.2V268ZM495.6 268.1Q494.3 268.1 493.2 267.5Q492.1 266.9 491.5 265.7Q490.9 264.6 490.9 262.9Q490.9 261.2 491.5 260.1Q492.1 258.9 493.2 258.3Q494.3 257.7 495.6 257.7Q497 257.7 498.1 258.3Q499.1 258.9 499.8 260.1Q500.4 261.2 500.4 262.9Q500.4 264.6 499.8 265.7Q499.1 266.9 498.1 267.5Q497 268.1 495.6 268.1ZM495.6 266.3Q496.4 266.3 497 265.9Q497.6 265.5 497.9 264.8Q498.3 264 498.3 262.9Q498.3 261.8 497.9 261.1Q497.6 260.3 497 259.9Q496.4 259.5 495.6 259.5Q494.8 259.5 494.2 259.9Q493.7 260.3 493.3 261.1Q493 261.8 493 262.9Q493 264 493.3 264.8Q493.7 265.5 494.2 265.9Q494.8 266.3 495.6 266.3ZM506.7 268H504.1V266.2H506.6Q507.6 266.2 508.3 265.9Q508.9 265.5 509.3 264.8Q509.6 264 509.6 262.9Q509.6 261.8 509.3 261Q508.9 260.3 508.3 260Q507.6 259.6 506.6 259.6H504V257.8H506.8Q508.3 257.8 509.4 258.4Q510.5 259 511.1 260.2Q511.7 261.3 511.7 262.9Q511.7 264.5 511.1 265.6Q510.5 266.8 509.4 267.4Q508.3 268 506.7 268ZM505.2 257.8V268H503.1V257.8ZM514.5 268V257.8H521.3V259.5H516.5V262H520.9V263.7H516.5V266.3H521.3V268ZM524.2 268V257.8H526.2V266.3H530.6V268ZM532.7 268 536.2 257.8H538.9L542.5 268H540.2L538.5 263.1Q538.2 262.1 537.9 261Q537.6 259.9 537.3 258.5H537.7Q537.4 259.9 537.1 261Q536.8 262.2 536.6 263.1L535 268ZM534.9 265.6V264H540.3V265.6ZM548.5 268H545.9V266.2H548.4Q549.4 266.2 550.1 265.9Q550.7 265.5 551.1 264.8Q551.4 264 551.4 262.9Q551.4 261.8 551.1 261Q550.7 260.3 550.1 260Q549.4 259.6 548.4 259.6H545.8V257.8H548.5Q550.1 257.8 551.2 258.4Q552.3 259 552.9 260.2Q553.5 261.3 553.5 262.9Q553.5 264.5 552.9 265.6Q552.3 266.8 551.2 267.4Q550.1 268 548.5 268ZM547 257.8V268H544.9V257.8ZM560.7 268.1Q559.4 268.1 558.3 267.5Q557.2 266.9 556.6 265.7Q556 264.6 556 262.9Q556 261.2 556.6 260.1Q557.2 258.9 558.3 258.3Q559.4 257.7 560.7 257.7Q562.1 257.7 563.1 258.3Q564.2 258.9 564.8 260.1Q565.5 261.2 565.5 262.9Q565.5 264.6 564.8 265.7Q564.2 266.9 563.1 267.5Q562.1 268.1 560.7 268.1ZM560.7 266.3Q561.5 266.3 562.1 265.9Q562.7 265.5 563 264.8Q563.3 264 563.3 262.9Q563.3 261.8 563 261.1Q562.7 260.3 562.1 259.9Q561.5 259.5 560.7 259.5Q559.9 259.5 559.3 259.9Q558.7 260.3 558.4 261.1Q558.1 261.8 558.1 262.9Q558.1 264 558.4 264.8Q558.7 265.5 559.3 265.9Q559.9 266.3 560.7 266.3ZM572 268.1Q570.7 268.1 569.8 267.8Q568.9 267.4 568.4 266.7Q567.9 265.9 567.9 264.8H569.9Q570 265.4 570.2 265.7Q570.5 266 570.9 266.2Q571.4 266.4 571.9 266.4Q572.5 266.4 572.9 266.2Q573.3 266.1 573.6 265.8Q573.8 265.5 573.8 265.1Q573.8 264.7 573.6 264.5Q573.4 264.3 573 264.1Q572.6 263.9 572 263.8L570.9 263.5Q569.6 263.2 568.9 262.5Q568.2 261.9 568.2 260.7Q568.2 259.8 568.7 259.1Q569.1 258.4 570 258.1Q570.9 257.7 572 257.7Q573.1 257.7 574 258.1Q574.8 258.5 575.3 259.1Q575.7 259.8 575.8 260.7H573.7Q573.7 260.1 573.2 259.8Q572.7 259.4 572 259.4Q571.4 259.4 571.1 259.6Q570.7 259.7 570.5 260Q570.3 260.3 570.3 260.6Q570.3 261 570.5 261.2Q570.7 261.5 571.1 261.6Q571.5 261.8 571.9 261.9L572.8 262.1Q573.5 262.3 574 262.5Q574.6 262.8 575 263.1Q575.4 263.5 575.7 264Q575.9 264.5 575.9 265.1Q575.9 266 575.4 266.7Q575 267.4 574.1 267.8Q573.2 268.1 572 268.1Z" fill="#f2ede3"/><path d="M36.2 314.2Q35.2 314.2 34.4 313.8Q33.6 313.5 33.2 312.9Q32.7 312.2 32.7 311.4H34.1Q34.2 311.9 34.5 312.2Q34.7 312.6 35.2 312.7Q35.7 312.9 36.2 312.9Q36.8 312.9 37.3 312.7Q37.8 312.5 38 312.2Q38.3 311.8 38.3 311.4Q38.3 311 38.1 310.7Q37.8 310.4 37.4 310.3Q37 310.1 36.5 309.9L35.4 309.6Q34.2 309.3 33.6 308.7Q32.9 308.1 32.9 307.1Q32.9 306.3 33.4 305.7Q33.8 305.1 34.6 304.8Q35.3 304.4 36.3 304.4Q37.3 304.4 38 304.8Q38.7 305.1 39.2 305.7Q39.6 306.3 39.6 307H38.2Q38.1 306.4 37.6 306Q37.1 305.7 36.3 305.7Q35.7 305.7 35.3 305.8Q34.8 306 34.6 306.3Q34.4 306.7 34.4 307.1Q34.4 307.5 34.7 307.8Q34.9 308.1 35.3 308.2Q35.7 308.4 36.1 308.5L37 308.7Q37.5 308.8 37.9 309Q38.4 309.2 38.8 309.5Q39.2 309.8 39.5 310.3Q39.7 310.7 39.7 311.4Q39.7 312.2 39.3 312.8Q38.9 313.4 38.1 313.8Q37.3 314.2 36.2 314.2ZM42.9 314V304.5H46.3Q47.4 304.5 48.2 304.9Q48.9 305.4 49.2 306Q49.6 306.7 49.6 307.6Q49.6 308.5 49.2 309.2Q48.9 309.9 48.2 310.3Q47.4 310.7 46.3 310.7H44V309.5H46.2Q46.9 309.5 47.3 309.2Q47.7 309 47.9 308.6Q48.1 308.1 48.1 307.6Q48.1 307.1 47.9 306.7Q47.7 306.3 47.3 306Q46.9 305.8 46.2 305.8H44.4V314ZM52.1 314 55.4 304.5H57.2L60.6 314H59.1L57.2 308.7Q57 308.1 56.8 307.2Q56.5 306.4 56.2 305.1H56.5Q56.1 306.4 55.9 307.2Q55.6 308.1 55.4 308.7L53.6 314ZM53.9 311.5V310.3H58.8V311.5ZM63.5 314V304.5H66.9Q68 304.5 68.7 304.9Q69.4 305.3 69.8 306Q70.2 306.6 70.2 307.5Q70.2 308.4 69.8 309Q69.4 309.7 68.7 310.1Q68 310.4 66.9 310.4H64.3V309.2H66.7Q67.4 309.2 67.9 309Q68.3 308.8 68.5 308.4Q68.7 308 68.7 307.5Q68.7 307 68.5 306.6Q68.3 306.2 67.9 306Q67.4 305.8 66.7 305.8H65V314ZM68.9 314 66.6 309.7H68.2L70.5 314ZM74.5 311.5V310Q74.8 309.6 75.1 309.1Q75.4 308.7 75.7 308.3Q76.1 307.9 76.4 307.5L79.1 304.5H80.9L76.9 309L76.8 308.9ZM73.4 314V304.5H74.9V307.6L74.9 309.7L74.9 310.4V314ZM79.3 314 76 309.4 76.9 308.3 81 314ZM94.7 310.4Q94.3 310.4 94.1 310.2Q93.8 309.9 93.8 309.5Q93.8 309.1 94.1 308.8Q94.3 308.6 94.7 308.6Q95.1 308.6 95.4 308.8Q95.7 309.1 95.7 309.5Q95.7 309.9 95.4 310.2Q95.1 310.4 94.7 310.4ZM109.2 314V304.5H112.6Q113.7 304.5 114.4 304.9Q115.1 305.4 115.5 306Q115.8 306.7 115.8 307.6Q115.8 308.5 115.5 309.2Q115.1 309.9 114.4 310.3Q113.6 310.7 112.5 310.7H110.2V309.5H112.4Q113.1 309.5 113.5 309.2Q114 309 114.2 308.6Q114.4 308.1 114.4 307.6Q114.4 307.1 114.2 306.7Q114 306.3 113.5 306Q113.1 305.8 112.4 305.8H110.6V314ZM119 314V304.5H122.4Q123.5 304.5 124.2 304.9Q124.9 305.3 125.3 306Q125.7 306.6 125.7 307.5Q125.7 308.4 125.3 309Q124.9 309.7 124.2 310.1Q123.5 310.4 122.4 310.4H119.8V309.2H122.2Q122.9 309.2 123.4 309Q123.8 308.8 124 308.4Q124.2 308 124.2 307.5Q124.2 307 124 306.6Q123.8 306.2 123.4 306Q122.9 305.8 122.2 305.8H120.5V314ZM124.4 314 122.1 309.7H123.7L126 314ZM132.9 314.1Q131.6 314.1 130.7 313.5Q129.7 313 129.2 311.9Q128.6 310.8 128.6 309.3Q128.6 307.8 129.2 306.7Q129.7 305.6 130.7 305Q131.6 304.4 132.9 304.4Q134.1 304.4 135.1 305Q136 305.6 136.6 306.7Q137.1 307.8 137.1 309.3Q137.1 310.8 136.6 311.9Q136 313 135.1 313.5Q134.1 314.1 132.9 314.1ZM132.9 312.8Q133.7 312.8 134.3 312.4Q135 312 135.3 311.2Q135.7 310.4 135.7 309.3Q135.7 308.1 135.3 307.3Q135 306.5 134.3 306.1Q133.7 305.7 132.9 305.7Q132.1 305.7 131.4 306.1Q130.8 306.5 130.4 307.3Q130 308.1 130 309.3Q130 310.4 130.4 311.2Q130.8 312 131.4 312.4Q132.1 312.8 132.9 312.8ZM140.4 314V304.5H142.1L145.6 310.2Q145.8 310.5 146 310.8Q146.2 311.2 146.5 311.7Q146.7 312.2 147 312.8H146.8Q146.8 312.2 146.7 311.7Q146.7 311.2 146.7 310.7Q146.7 310.2 146.7 309.9V304.5H148.1V314H146.5L143.3 309Q143 308.6 142.8 308.1Q142.5 307.7 142.2 307.2Q141.9 306.6 141.5 305.8H141.7Q141.8 306.5 141.8 307.1Q141.8 307.7 141.8 308.2Q141.9 308.7 141.9 309V314ZM155.7 314.1Q154.4 314.1 153.5 313.5Q152.5 313 152 311.9Q151.4 310.8 151.4 309.3Q151.4 307.8 152 306.7Q152.5 305.6 153.5 305Q154.4 304.4 155.7 304.4Q156.9 304.4 157.9 305Q158.8 305.6 159.4 306.7Q159.9 307.8 159.9 309.3Q159.9 310.8 159.4 311.9Q158.8 313 157.9 313.5Q156.9 314.1 155.7 314.1ZM155.7 312.8Q156.5 312.8 157.1 312.4Q157.8 312 158.1 311.2Q158.5 310.4 158.5 309.3Q158.5 308.1 158.1 307.3Q157.8 306.5 157.1 306.1Q156.5 305.7 155.7 305.7Q154.9 305.7 154.2 306.1Q153.6 306.5 153.2 307.3Q152.8 308.1 152.8 309.3Q152.8 310.4 153.2 311.2Q153.6 312 154.2 312.4Q154.9 312.8 155.7 312.8ZM155.1 303.6 156 301.7H157.4L156.2 303.6ZM166.4 314.2Q165.3 314.2 164.5 313.8Q163.7 313.5 163.3 312.9Q162.9 312.2 162.8 311.4H164.3Q164.3 311.9 164.6 312.2Q164.9 312.6 165.4 312.7Q165.8 312.9 166.4 312.9Q167 312.9 167.4 312.7Q167.9 312.5 168.2 312.2Q168.4 311.8 168.4 311.4Q168.4 311 168.2 310.7Q168 310.4 167.6 310.3Q167.2 310.1 166.7 309.9L165.5 309.6Q164.4 309.3 163.7 308.7Q163.1 308.1 163.1 307.1Q163.1 306.3 163.5 305.7Q164 305.1 164.7 304.8Q165.5 304.4 166.4 304.4Q167.4 304.4 168.1 304.8Q168.9 305.1 169.3 305.7Q169.7 306.3 169.8 307H168.3Q168.3 306.4 167.7 306Q167.2 305.7 166.4 305.7Q165.8 305.7 165.4 305.8Q165 306 164.8 306.3Q164.5 306.7 164.5 307.1Q164.5 307.5 164.8 307.8Q165.1 308.1 165.5 308.2Q165.9 308.4 166.2 308.5L167.1 308.7Q167.6 308.8 168.1 309Q168.6 309.2 169 309.5Q169.4 309.8 169.6 310.3Q169.9 310.7 169.9 311.4Q169.9 312.2 169.5 312.8Q169.1 313.4 168.3 313.8Q167.5 314.2 166.4 314.2ZM172.6 305.8V304.5H180V305.8H177V314H175.6V305.8ZM184.5 304.5V314H183.1V304.5ZM192.1 314.1Q190.8 314.1 189.9 313.5Q188.9 313 188.3 311.9Q187.8 310.8 187.8 309.3Q187.8 307.8 188.3 306.7Q188.9 305.6 189.9 305Q190.8 304.4 192.1 304.4Q192.8 304.4 193.5 304.6Q194.1 304.8 194.6 305.3Q195.2 305.7 195.5 306.3Q195.8 306.9 196 307.6H194.5Q194.4 307.1 194.2 306.8Q194 306.5 193.6 306.2Q193.3 306 192.9 305.9Q192.5 305.7 192.1 305.7Q191.3 305.7 190.6 306.1Q190 306.6 189.6 307.3Q189.2 308.1 189.2 309.3Q189.2 310.4 189.6 311.2Q190 312 190.6 312.4Q191.3 312.8 192.1 312.8Q192.5 312.8 192.9 312.7Q193.3 312.6 193.6 312.3Q194 312.1 194.2 311.7Q194.4 311.4 194.5 310.9H196Q195.8 311.6 195.5 312.2Q195.2 312.8 194.7 313.2Q194.2 313.7 193.5 313.9Q192.8 314.1 192.1 314.1ZM203.1 314.1Q201.9 314.1 200.9 313.5Q199.9 313 199.4 311.9Q198.8 310.8 198.8 309.3Q198.8 307.8 199.4 306.7Q199.9 305.6 200.9 305Q201.9 304.4 203.1 304.4Q204.3 304.4 205.3 305Q206.3 305.6 206.8 306.7Q207.4 307.8 207.4 309.3Q207.4 310.8 206.8 311.9Q206.3 313 205.3 313.5Q204.3 314.1 203.1 314.1ZM203.1 312.8Q203.9 312.8 204.5 312.4Q205.2 312 205.6 311.2Q205.9 310.4 205.9 309.3Q205.9 308.1 205.6 307.3Q205.2 306.5 204.5 306.1Q203.9 305.7 203.1 305.7Q202.3 305.7 201.6 306.1Q201 306.5 200.6 307.3Q200.3 308.1 200.3 309.3Q200.3 310.4 200.6 311.2Q201 312 201.6 312.4Q202.3 312.8 203.1 312.8ZM221.5 310.4Q221.1 310.4 220.8 310.2Q220.5 309.9 220.5 309.5Q220.5 309.1 220.8 308.8Q221.1 308.6 221.5 308.6Q221.9 308.6 222.1 308.8Q222.4 309.1 222.4 309.5Q222.4 309.9 222.1 310.2Q221.9 310.4 221.5 310.4ZM239.9 314.1Q238.6 314.1 237.7 313.5Q236.7 313 236.2 311.9Q235.6 310.8 235.6 309.3Q235.6 307.8 236.2 306.7Q236.7 305.6 237.7 305Q238.6 304.4 239.9 304.4Q241.1 304.4 242.1 305Q243 305.6 243.6 306.7Q244.1 307.8 244.1 309.3Q244.1 310.8 243.6 311.9Q243 313 242.1 313.5Q241.1 314.1 239.9 314.1ZM239.9 312.8Q240.7 312.8 241.3 312.4Q242 312 242.3 311.2Q242.7 310.4 242.7 309.3Q242.7 308.1 242.3 307.3Q242 306.5 241.3 306.1Q240.7 305.7 239.9 305.7Q239.1 305.7 238.4 306.1Q237.8 306.5 237.4 307.3Q237 308.1 237 309.3Q237 310.4 237.4 311.2Q237.8 312 238.4 312.4Q239.1 312.8 239.9 312.8ZM247.4 314V304.5H250.8Q251.9 304.5 252.6 304.9Q253.3 305.4 253.7 306Q254.1 306.7 254.1 307.6Q254.1 308.5 253.7 309.2Q253.3 309.9 252.6 310.3Q251.9 310.7 250.8 310.7H248.5V309.5H250.6Q251.3 309.5 251.8 309.2Q252.2 309 252.4 308.6Q252.6 308.1 252.6 307.6Q252.6 307.1 252.4 306.7Q252.2 306.3 251.8 306Q251.3 305.8 250.6 305.8H248.8V314ZM256.8 305.8V304.5H264.1V305.8H261.2V314H259.7V305.8ZM268.7 304.5V314H267.2V304.5ZM272.3 314V304.5H274.4L276.5 310Q276.5 310.2 276.7 310.6Q276.8 310.9 276.9 311.4Q277 311.8 277.1 312.2Q277.2 312.6 277.3 313H277Q277.1 312.7 277.2 312.3Q277.3 311.8 277.4 311.4Q277.5 311 277.7 310.6Q277.8 310.2 277.9 310L279.9 304.5H282V314H280.6V308.9Q280.6 308.6 280.6 308.2Q280.6 307.8 280.6 307.4Q280.6 306.9 280.6 306.4Q280.7 306 280.7 305.5H280.8Q280.6 306 280.5 306.5Q280.3 307 280.2 307.4Q280.1 307.9 279.9 308.3Q279.8 308.7 279.7 308.9L277.8 314H276.5L274.6 308.9Q274.5 308.7 274.4 308.3Q274.2 307.9 274.1 307.5Q273.9 307 273.8 306.5Q273.6 306 273.5 305.5H273.6Q273.6 305.9 273.6 306.4Q273.6 306.8 273.6 307.3Q273.7 307.8 273.7 308.2Q273.7 308.6 273.7 308.9V314ZM287.1 304.5V314H285.6V304.5ZM290.4 314V313L294.5 307Q294.8 306.6 295.2 306.1Q295.5 305.7 295.9 305.3L296 305.7Q295.4 305.8 294.8 305.8Q294.2 305.8 293.6 305.8H290.4V304.5H297.2V305.5L293.1 311.4Q292.8 311.9 292.4 312.4Q292.1 312.8 291.7 313.3L291.5 312.8Q292.2 312.8 292.8 312.8Q293.4 312.8 294 312.8H297.2V314ZM299.8 314 303.1 304.5H304.9L308.3 314H306.8L304.9 308.7Q304.7 308.1 304.5 307.2Q304.2 306.4 303.9 305.1H304.2Q303.8 306.4 303.6 307.2Q303.3 308.1 303.1 308.7L301.3 314ZM301.6 311.5V310.3H306.5V311.5ZM315.1 314.1Q313.9 314.1 313 313.5Q312 313 311.4 311.9Q310.9 310.8 310.9 309.3Q310.9 307.8 311.4 306.7Q312 305.6 313 305Q313.9 304.4 315.1 304.4Q315.9 304.4 316.5 304.6Q317.2 304.8 317.7 305.3Q318.2 305.7 318.6 306.3Q318.9 306.9 319 307.6H317.6Q317.5 307.1 317.3 306.8Q317.1 306.5 316.7 306.2Q316.4 306 316 305.9Q315.6 305.7 315.2 305.7Q314.3 305.7 313.7 306.1Q313.1 306.6 312.7 307.3Q312.3 308.1 312.3 309.3Q312.3 310.4 312.7 311.2Q313.1 312 313.7 312.4Q314.3 312.8 315.2 312.8Q315.6 312.8 316 312.7Q316.4 312.6 316.7 312.3Q317.1 312.1 317.3 311.7Q317.5 311.4 317.6 310.9H319Q318.9 311.6 318.6 312.2Q318.3 312.8 317.8 313.2Q317.3 313.7 316.6 313.9Q315.9 314.1 315.1 314.1ZM323.7 304.5V314H322.2V304.5ZM331.2 314.1Q330 314.1 329 313.5Q328.1 313 327.5 311.9Q327 310.8 327 309.3Q327 307.8 327.5 306.7Q328.1 305.6 329 305Q330 304.4 331.2 304.4Q332.5 304.4 333.4 305Q334.4 305.6 334.9 306.7Q335.5 307.8 335.5 309.3Q335.5 310.8 334.9 311.9Q334.4 313 333.4 313.5Q332.5 314.1 331.2 314.1ZM331.2 312.8Q332 312.8 332.7 312.4Q333.3 312 333.7 311.2Q334.1 310.4 334.1 309.3Q334.1 308.1 333.7 307.3Q333.3 306.5 332.7 306.1Q332 305.7 331.2 305.7Q330.4 305.7 329.8 306.1Q329.1 306.5 328.8 307.3Q328.4 308.1 328.4 309.3Q328.4 310.4 328.8 311.2Q329.1 312 329.8 312.4Q330.4 312.8 331.2 312.8ZM330.7 303.6 331.6 301.7H333L331.7 303.6ZM338.8 314V304.5H340.4L344 310.2Q344.2 310.5 344.4 310.8Q344.6 311.2 344.9 311.7Q345.1 312.2 345.3 312.8H345.2Q345.1 312.2 345.1 311.7Q345.1 311.2 345 310.7Q345 310.2 345 309.9V304.5H346.5V314H344.8L341.6 309Q341.4 308.6 341.1 308.1Q340.9 307.7 340.6 307.2Q340.3 306.6 339.9 305.8H340.1Q340.1 306.5 340.2 307.1Q340.2 307.7 340.2 308.2Q340.2 308.7 340.2 309V314Z" fill="#8a8a8f"/></svg>