<svg xmlns="http://www.w3.org/2000/svg" width="900" height="64" viewBox="0 0 900 64"><style></style><polygon points="16,6 460,6 444,58 0,58" fill="#ff2e3a"/><path d="M30.4 48.3Q26.7 48.3 24.7 46.2Q22.7 44.1 22.7 40.2V27Q22.7 22.9 24.6 20.7Q26.5 18.5 30.4 18.5Q34.3 18.5 36.2 20.7Q38.1 22.9 38.1 27V40.2Q38.1 44.1 36.1 46.2Q34.1 48.3 30.4 48.3ZM30.4 42.9Q31.1 42.9 31.5 42.3Q31.8 41.7 31.8 40.9V26.5Q31.8 25.4 31.6 24.7Q31.4 23.9 30.4 23.9Q29.4 23.9 29.2 24.7Q29 25.4 29 26.5V40.9Q29 41.7 29.3 42.3Q29.7 42.9 30.4 42.9ZM42.8 48V25.5Q42.2 26.2 41.2 26.6Q40.1 27.1 39.2 27.1V22.4Q40.1 22.3 41.1 21.8Q42.1 21.4 43 20.6Q43.9 19.9 44.3 18.8H49V48Z" fill="#f2ede3" opacity=".55"/><path d="M71.3 48V18.8H79Q81.4 18.8 82.9 19.9Q84.3 20.9 84.9 22.9Q85.5 24.9 85.5 27.7Q85.5 30.3 85 32.3Q84.5 34.3 83.2 35.3Q81.8 36.4 79.4 36.4H77V48ZM77 31.2H77.4Q79 31.2 79.4 30.3Q79.7 29.4 79.7 27.6Q79.7 25.9 79.4 25Q79 24.1 77.7 24.1H77ZM88.8 48V18.8H97.8Q100.1 18.8 101.2 19.8Q102.3 20.8 102.7 22.7Q103.1 24.5 103.1 27Q103.1 29.4 102.5 30.8Q101.9 32.2 100.2 32.8Q101.6 33 102.2 34.1Q102.7 35.2 102.7 36.9V48H97V36.6Q97 35.3 96.4 35Q95.9 34.7 94.8 34.7V48ZM94.8 29.6H96.2Q97.4 29.6 97.4 27Q97.4 25.3 97.1 24.7Q96.9 24.2 96.2 24.2H94.8ZM113.5 48.3Q110 48.3 108.2 46.1Q106.3 44 106.3 40V26.2Q106.3 22.4 108.2 20.5Q110 18.5 113.5 18.5Q117.1 18.5 118.9 20.5Q120.7 22.4 120.7 26.2V40Q120.7 44 118.9 46.1Q117 48.3 113.5 48.3ZM113.6 42.9Q114.9 42.9 114.9 40.3V26.1Q114.9 23.9 113.6 23.9Q112.1 23.9 112.1 26.1V40.3Q112.1 41.7 112.5 42.3Q112.8 42.9 113.6 42.9ZM128.1 48V38.4L123.5 18.8H129.3L130.9 28.7L132.5 18.8H138.3L133.6 38.4V48ZM141.3 48V18.8H152.9V24.4H147.2V30.1H152.7V35.6H147.2V42.3H153.3V48ZM163.6 48.3Q160.4 48.3 158.5 46.3Q156.5 44.3 156.5 40.8V27.3Q156.5 23 158.2 20.8Q159.9 18.5 163.7 18.5Q165.8 18.5 167.4 19.3Q169 20 169.9 21.6Q170.9 23.1 170.9 25.4V30.4H165.1V26.1Q165.1 24.8 164.7 24.4Q164.4 23.9 163.7 23.9Q162.9 23.9 162.6 24.5Q162.3 25.1 162.3 26.1V40.7Q162.3 41.9 162.7 42.4Q163 42.9 163.7 42.9Q164.4 42.9 164.7 42.3Q165.1 41.7 165.1 40.7V35.4H170.9V40.9Q170.9 44.8 169 46.5Q167 48.3 163.6 48.3ZM176.9 48V24.4H173.4V18.8H186.2V24.4H182.7V48ZM196.3 48.3Q192.8 48.3 190.9 46.1Q189.1 44 189.1 40V26.2Q189.1 22.4 190.9 20.5Q192.8 18.5 196.3 18.5Q199.8 18.5 201.7 20.5Q203.5 22.4 203.5 26.2V40Q203.5 44 201.6 46.1Q199.8 48.3 196.3 48.3ZM196.3 42.9Q197.7 42.9 197.7 40.3V26.1Q197.7 23.9 196.4 23.9Q194.9 23.9 194.9 26.1V40.3Q194.9 41.7 195.2 42.3Q195.6 42.9 196.3 42.9ZM214.3 48.3Q210.3 48.3 208.5 46.3Q206.8 44.3 206.8 39.9V37.1H212.5V40.7Q212.5 41.7 212.8 42.3Q213.2 42.9 213.9 42.9Q214.7 42.9 215 42.4Q215.3 42 215.3 40.9Q215.3 39.5 215.1 38.6Q214.8 37.7 214.1 36.9Q213.5 36.1 212.3 35L209.7 32.5Q206.8 29.7 206.8 26.2Q206.8 22.4 208.5 20.5Q210.2 18.5 213.5 18.5Q217.5 18.5 219.2 20.7Q220.9 22.8 220.9 27.2H215V25.2Q215 24.6 214.6 24.2Q214.3 23.9 213.7 23.9Q213 23.9 212.7 24.3Q212.4 24.7 212.4 25.3Q212.4 25.9 212.7 26.6Q213 27.3 214 28.3L217.4 31.5Q218.4 32.5 219.2 33.5Q220.1 34.6 220.6 36Q221.1 37.4 221.1 39.5Q221.1 43.6 219.6 45.9Q218.1 48.3 214.3 48.3ZM234 48V18.8H242.1Q245.2 18.8 246.8 20.5Q248.4 22.3 248.4 25.7V39.3Q248.4 43.5 246.9 45.7Q245.5 48 241.9 48ZM239.9 42.8H240.9Q242.5 42.8 242.5 41.3V26.2Q242.5 24.7 242.1 24.3Q241.7 23.9 240.5 23.9H239.9ZM252.3 48V18.8H264V24.4H258.2V30.1H263.7V35.6H258.2V42.3H264.4V48ZM274.7 48.3Q270.7 48.3 268.9 46.3Q267.2 44.3 267.2 39.9V37.1H273V40.7Q273 41.7 273.3 42.3Q273.6 42.9 274.3 42.9Q275.1 42.9 275.4 42.4Q275.7 42 275.7 40.9Q275.7 39.5 275.5 38.6Q275.2 37.7 274.6 36.9Q273.9 36.1 272.7 35L270.1 32.5Q267.2 29.7 267.2 26.2Q267.2 22.4 268.9 20.5Q270.7 18.5 273.9 18.5Q278 18.5 279.6 20.7Q281.3 22.8 281.3 27.2H275.4V25.2Q275.4 24.6 275 24.2Q274.7 23.9 274.1 23.9Q273.4 23.9 273.1 24.3Q272.8 24.7 272.8 25.3Q272.8 25.9 273.1 26.6Q273.4 27.3 274.4 28.3L277.8 31.5Q278.8 32.5 279.6 33.5Q280.5 34.6 281 36Q281.5 37.4 281.5 39.5Q281.5 43.6 280 45.9Q278.5 48.3 274.7 48.3ZM287.5 48V24.4H284V18.8H296.8V24.4H293.3V48ZM299.1 48 301.9 18.8H311.9L314.6 48H309.1L308.7 43.3H305.2L304.8 48ZM305.6 38.6H308.2L307 23.8H306.7ZM324.7 48.3Q321.6 48.3 319.6 46.3Q317.7 44.3 317.7 40.8V27.3Q317.7 23 319.4 20.8Q321.1 18.5 324.9 18.5Q326.9 18.5 328.5 19.3Q330.2 20 331.1 21.6Q332 23.1 332 25.4V30.4H326.2V26.1Q326.2 24.8 325.9 24.4Q325.6 23.9 324.9 23.9Q324 23.9 323.8 24.5Q323.5 25.1 323.5 26.1V40.7Q323.5 41.9 323.8 42.4Q324.2 42.9 324.9 42.9Q325.6 42.9 325.9 42.3Q326.2 41.7 326.2 40.7V35.4H332.1V40.9Q332.1 44.8 330.2 46.5Q328.2 48.3 324.7 48.3ZM334.7 48 337.6 18.8H347.5L350.2 48H344.7L344.3 43.3H340.8L340.4 48ZM341.2 38.6H343.9L342.6 23.8H342.3ZM353.5 48V18.8H361.6Q364.7 18.8 366.3 20.5Q367.9 22.3 367.9 25.7V39.3Q367.9 43.5 366.5 45.7Q365 48 361.4 48ZM359.4 42.8H360.4Q362 42.8 362 41.3V26.2Q362 24.7 361.6 24.3Q361.3 23.9 360.1 23.9H359.4ZM378.8 48.3Q375.3 48.3 373.4 46.1Q371.6 44 371.6 40V26.2Q371.6 22.4 373.4 20.5Q375.2 18.5 378.8 18.5Q382.3 18.5 384.1 20.5Q386 22.4 386 26.2V40Q386 44 384.1 46.1Q382.3 48.3 378.8 48.3ZM378.8 42.9Q380.2 42.9 380.2 40.3V26.1Q380.2 23.9 378.9 23.9Q377.4 23.9 377.4 26.1V40.3Q377.4 41.7 377.7 42.3Q378.1 42.9 378.8 42.9ZM396.8 48.3Q392.8 48.3 391 46.3Q389.2 44.3 389.2 39.9V37.1H395V40.7Q395 41.7 395.3 42.3Q395.6 42.9 396.4 42.9Q397.2 42.9 397.5 42.4Q397.8 42 397.8 40.9Q397.8 39.5 397.5 38.6Q397.3 37.7 396.6 36.9Q396 36.1 394.8 35L392.2 32.5Q389.2 29.7 389.2 26.2Q389.2 22.4 391 20.5Q392.7 18.5 396 18.5Q400 18.5 401.7 20.7Q403.4 22.8 403.4 27.2H397.4V25.2Q397.4 24.6 397.1 24.2Q396.8 23.9 396.2 23.9Q395.5 23.9 395.2 24.3Q394.8 24.7 394.8 25.3Q394.8 25.9 395.2 26.6Q395.5 27.3 396.5 28.3L399.9 31.5Q400.9 32.5 401.7 33.5Q402.6 34.6 403.1 36Q403.6 37.4 403.6 39.5Q403.6 43.6 402.1 45.9Q400.5 48.3 396.8 48.3Z" fill="#0a0a0b"/><rect x="474" y="30" width="426" height="4" fill="#f2ede3" opacity=".18"/></svg>