<svg xmlns="http://www.w3.org/2000/svg" width="230" height="58" viewBox="0 0 230 58"><style></style><polygon points="14,0 230,0 216,58 0,58" fill="#17171a"/><polygon points="18,4 226,4 213,54 4,54" fill="none" stroke="#f2ede3" stroke-opacity=".35" stroke-width="1.5"/><path d="M30 36.1Q28.2 36.1 27.3 35.1Q26.3 34.2 26.3 32.3V26.1Q26.3 24.2 27.2 23.2Q28.1 22.1 30 22.1Q31.8 22.1 32.7 23.2Q33.6 24.2 33.6 26.1V32.3Q33.6 34.2 32.6 35.1Q31.7 36.1 30 36.1ZM30 33.6Q30.3 33.6 30.5 33.3Q30.6 33 30.6 32.7V25.9Q30.6 25.4 30.5 25Q30.4 24.7 30 24.7Q29.5 24.7 29.4 25Q29.3 25.4 29.3 25.9V32.7Q29.3 33 29.5 33.3Q29.6 33.6 30 33.6ZM37.7 36.2Q35.9 36.2 35 35.2Q34.2 34.2 34.2 32.3V30.9H37V32.3Q37 32.9 37.2 33.2Q37.3 33.6 37.8 33.6Q38.3 33.6 38.4 33.2Q38.5 32.8 38.5 31.9V31.5Q38.5 30.8 38.3 30.3Q38.1 29.7 37.4 29.7Q37.3 29.7 37.2 29.7Q37.1 29.8 37.1 29.8V27.3Q37.8 27.3 38.2 27Q38.6 26.7 38.6 25.9Q38.6 24.8 37.9 24.8Q37.4 24.8 37.3 25.1Q37.1 25.4 37.1 26V26.4H34.3Q34.3 26.3 34.3 26.1Q34.3 26 34.3 25.9Q34.3 24 35.2 23.1Q36 22.2 37.9 22.2Q41.4 22.2 41.4 25.9Q41.4 26.9 41.1 27.6Q40.8 28.2 40.1 28.5Q40.7 28.8 41 29.2Q41.2 29.6 41.3 30.3Q41.4 30.9 41.4 31.9Q41.4 33.9 40.6 35Q39.7 36.2 37.7 36.2Z" fill="#f2ede3" opacity=".75"/><path d="M62.3 40.2Q59.2 40.2 57.9 38.7Q56.5 37.2 56.5 33.8V31.6H61V34.4Q61 35.2 61.2 35.7Q61.4 36.1 62 36.1Q62.6 36.1 62.8 35.7Q63.1 35.4 63.1 34.6Q63.1 33.5 62.9 32.8Q62.7 32.2 62.2 31.5Q61.7 30.9 60.8 30.1L58.8 28.2Q56.5 26 56.5 23.3Q56.5 20.4 57.9 19Q59.2 17.5 61.7 17.5Q64.8 17.5 66.1 19.1Q67.3 20.7 67.3 24.1H62.8V22.5Q62.8 22.1 62.5 21.8Q62.3 21.6 61.8 21.6Q61.3 21.6 61.1 21.9Q60.8 22.2 60.8 22.6Q60.8 23.1 61.1 23.6Q61.3 24.2 62.1 24.9L64.6 27.4Q65.4 28.1 66.1 28.9Q66.7 29.8 67.1 30.8Q67.5 31.9 67.5 33.5Q67.5 36.6 66.3 38.4Q65.2 40.2 62.3 40.2ZM72.4 40V21.9H69.8V17.7H79.5V21.9H76.9V40ZM81.7 40 83.8 17.7H91.4L93.5 40H89.3L89 36.4H86.3L86 40ZM86.6 32.8H88.6L87.7 21.5H87.5ZM101.6 40.2Q99.2 40.2 97.7 38.7Q96.2 37.2 96.2 34.5V24.2Q96.2 20.9 97.5 19.2Q98.8 17.5 101.7 17.5Q103.3 17.5 104.5 18Q105.8 18.6 106.5 19.8Q107.2 20.9 107.2 22.7V26.6H102.7V23.3Q102.7 22.3 102.5 21.9Q102.2 21.6 101.7 21.6Q101.1 21.6 100.9 22Q100.6 22.5 100.6 23.2V34.4Q100.6 35.3 100.9 35.7Q101.2 36.1 101.7 36.1Q102.3 36.1 102.5 35.6Q102.7 35.2 102.7 34.4V30.4H107.2V34.6Q107.2 37.5 105.7 38.9Q104.3 40.2 101.6 40.2ZM110.2 40V17.7H114.6V26.6L116.7 17.7H121.2L118.7 27.9L121.7 40H117.1L114.7 29.2V40Z" fill="#f2ede3"/></svg>